<svg width="30" height="30" viewBox="0 0 30 30" fill="none" xmlns="http://www.w3.org/2000/svg">
<path d="M17.3077 2.30769C17.3077 1.03125 16.2764 0 15 0C13.7236 0 12.6923 1.03125 12.6923 2.30769V12.6923H2.30769C1.03125 12.6923 0 13.7236 0 15C0 16.2764 1.03125 17.3077 2.30769 17.3077H12.6923V27.6923C12.6923 28.9687 13.7236 30 15 30C16.2764 30 17.3077 28.9687 17.3077 27.6923V17.3077H27.6923C28.9687 17.3077 30 16.2764 30 15C30 13.7236 28.9687 12.6923 27.6923 12.6923H17.3077V2.30769Z" fill="white"/>
</svg>
