<svg width="63" height="60" viewBox="0 0 63 60" fill="none" xmlns="http://www.w3.org/2000/svg">
<path d="M31.6449 60C48.9516 60 62.9782 46.5703 62.9782 30C62.9782 13.4297 48.9516 0 31.6449 0C14.3381 0 0.311523 13.4297 0.311523 30C0.311523 46.5703 14.3381 60 31.6449 60ZM45.4756 24.4922L29.8089 39.4922C28.6584 40.5938 26.798 40.5938 25.6597 39.4922L17.8264 31.9922C16.6758 30.8906 16.6758 29.1094 17.8264 28.0195C18.9769 26.9297 20.8373 26.918 21.9756 28.0195L27.7282 33.5273L41.3141 20.5078C42.4646 19.4062 44.3251 19.4062 45.4633 20.5078C46.6016 21.6094 46.6139 23.3906 45.4633 24.4805L45.4756 24.4922Z" fill="#5B8E7D"/>
</svg>
