<svg width="694" height="465" viewBox="0 0 694 465" fill="none" xmlns="http://www.w3.org/2000/svg">
<g clip-path="url(#clip0_72_177)">
<path d="M122.996 358.904C122.014 357.249 117.767 359.021 116.987 357.519C116.209 356.022 120.154 353.742 122.409 348.533C122.815 347.594 125.377 341.674 123.481 339.847C119.886 336.385 103.436 350.673 97.6793 345.997C96.4159 344.971 95.5333 342.923 91.7096 339.597C90.1885 338.274 89.2687 337.676 88.3785 337.899C87.1154 338.214 87.0153 339.904 85.6609 343.227C83.6296 348.211 82.4282 347.91 81.2447 351.887C80.3661 354.839 80.5668 356.555 79.533 356.889C78.07 357.362 76.7235 354.231 74.8694 354.512C72.9774 354.798 71.8336 358.443 71.4723 361.173C70.7943 366.295 72.6757 369.675 73.7185 373.229C74.8516 377.091 75.5242 382.964 72.9072 391.279L47.0054 464.245C52.7237 449.272 69.281 408.229 76.2384 392.978C78.2469 388.575 80.4645 384.109 85.018 382.346C89.4019 380.649 95.4226 381.662 103.098 379.814C103.995 379.598 106.482 378.965 106.796 377.502C107.054 376.293 105.591 375.618 105.816 374.485C106.118 372.965 108.995 372.947 112.531 371.194C115.024 369.958 116.578 368.488 117.914 367.224C118.316 366.842 124.303 361.107 122.996 358.904H122.996Z" fill="#F2F2F2"/>
<path d="M21.0902 397.316C19.9945 397.32 19.6391 399.915 18.6765 399.865C17.7174 399.815 17.7365 397.221 15.8298 394.612C15.486 394.141 13.3192 391.176 11.8753 391.58C9.13846 392.345 11.4061 404.539 7.44983 406.015C6.5816 406.339 5.3213 406.181 2.58541 407.098C1.497 407.463 0.938368 407.742 0.790611 408.243C0.580974 408.953 1.38179 409.49 2.62239 411.114C4.48291 413.549 3.98852 414.051 5.59903 415.779C6.79459 417.062 7.69497 417.459 7.56078 418.063C7.37095 418.917 5.44542 418.675 5.04809 419.665C4.64266 420.676 6.10219 422.289 7.33781 423.254C9.65659 425.065 11.8586 425.117 13.9041 425.63C16.127 426.189 19.2044 427.553 22.531 431.237L50.876 465C45.176 457.874 29.8055 437.907 24.3259 430.092C22.744 427.836 21.1916 425.459 21.6402 422.716C22.072 420.075 24.3066 417.413 25.6137 413.113C25.7664 412.611 26.1735 411.208 25.5457 410.632C25.0267 410.156 24.2731 410.679 23.7819 410.242C23.1231 409.656 23.9442 408.238 24.1039 405.997C24.2165 404.417 23.9431 403.231 23.7079 402.21C23.637 401.903 22.5488 397.31 21.0902 397.316V397.316H21.0902Z" fill="#F2F2F2"/>
<path d="M42.9487 402.222L42.2886 396.33L42.5902 395.883C43.9858 393.818 44.6972 391.801 44.7057 389.886C44.7071 389.582 44.6929 389.278 44.6787 388.967C44.6218 387.739 44.5507 386.211 45.3474 384.43C45.7941 383.437 47.0489 381.138 48.9354 381.423C49.4433 381.494 49.8274 381.727 50.1191 382C50.1618 381.932 50.2059 381.864 50.2528 381.79C50.8404 380.894 51.3056 380.51 51.7538 380.14C52.098 379.855 52.4537 379.562 53.0114 378.868C53.2561 378.564 53.4468 378.296 53.6075 378.072C54.0955 377.392 54.7329 376.581 55.8568 376.595C57.0576 376.652 57.6864 377.645 58.1032 378.302C58.8473 379.474 59.1845 380.319 59.4078 380.88C59.489 381.084 59.5814 381.315 59.6284 381.386C60.0154 381.955 63.161 381.423 64.346 381.229C67.0079 380.786 69.3112 380.402 70.2602 382.08C70.9403 383.281 70.4352 384.868 68.7137 386.925C68.1773 387.565 67.6068 388.051 67.1004 388.433C67.5201 388.683 67.8956 389.067 68.0479 389.67C68.4064 391.098 67.1786 392.529 64.4001 393.929C63.7101 394.279 62.7811 394.745 61.4793 394.97C60.8661 395.075 60.3141 395.101 59.8418 395.115C59.8318 395.388 59.7678 395.684 59.6014 395.989C59.1134 396.885 58.0976 397.312 56.5668 397.209C54.8823 397.121 53.4952 396.799 52.2716 396.518C51.2032 396.273 50.2827 396.065 49.56 396.114C48.2198 396.222 47.1869 397.294 45.9748 398.686L42.9488 402.222H42.9487H42.9487Z" fill="#F2F2F2"/>
<path d="M46.0109 367.142L40.4783 369.275L39.9697 369.097C37.6175 368.271 35.4856 368.095 33.6312 368.572C33.3363 368.648 33.0454 368.739 32.749 368.831C31.5745 369.198 30.1145 369.654 28.1894 369.335C27.1155 369.155 24.5734 368.525 24.3701 366.628C24.3101 366.119 24.4384 365.688 24.6286 365.337C24.5517 365.313 24.4745 365.288 24.391 365.261C23.375 364.92 22.8854 364.567 22.4139 364.228C22.0514 363.967 21.6777 363.697 20.8646 363.334C20.5081 363.175 20.201 363.058 19.9428 362.96C19.1612 362.66 18.2151 362.249 17.9438 361.159C17.6943 359.983 18.4954 359.123 19.0254 358.553C19.9706 357.536 20.7025 356.996 21.1881 356.638C21.3657 356.507 21.5652 356.359 21.6221 356.296C22.0744 355.777 20.7618 352.87 20.2741 351.773C19.1695 349.311 18.2137 347.181 19.5969 345.838C20.5859 344.876 22.2498 344.961 24.6764 346.105C25.4318 346.461 26.0471 346.889 26.5444 347.282C26.6802 346.813 26.9564 346.352 27.5013 346.052C28.7921 345.343 30.4879 346.168 32.5469 348.5C33.0604 349.078 33.7475 349.858 34.2951 351.06C34.5524 351.627 34.7172 352.154 34.8508 352.607C35.1176 352.548 35.42 352.535 35.7568 352.618C36.7475 352.863 37.418 353.737 37.7072 355.244C38.0492 356.895 38.09 358.318 38.1279 359.573C38.1622 360.668 38.1947 361.611 38.4249 362.298C38.8694 363.566 40.169 364.293 41.8224 365.113L46.0111 367.142L46.0109 367.142V367.142Z" fill="#F2F2F2"/>
<path d="M42.9487 349.785L42.2886 343.893L42.5902 343.447C43.9858 341.381 44.6972 339.364 44.7057 337.45C44.7071 337.145 44.6929 336.841 44.6787 336.531C44.6218 335.302 44.5507 333.774 45.3474 331.993C45.7941 331 47.0489 328.702 48.9354 328.986C49.4433 329.057 49.8274 329.291 50.1191 329.564C50.1618 329.495 50.2059 329.427 50.2528 329.353C50.8404 328.457 51.3056 328.073 51.7538 327.703C52.098 327.419 52.4537 327.126 53.0114 326.432C53.2561 326.127 53.4468 325.86 53.6075 325.635C54.0955 324.955 54.7329 324.144 55.8568 324.159C57.0576 324.215 57.6864 325.208 58.1032 325.865C58.8473 327.038 59.1845 327.882 59.4078 328.443C59.489 328.648 59.5814 328.878 59.6284 328.949C60.0154 329.518 63.161 328.986 64.346 328.793C67.0079 328.349 69.3112 327.965 70.2602 329.643C70.9403 330.844 70.4352 332.431 68.7137 334.488C68.1773 335.128 67.6068 335.615 67.1004 335.996C67.5201 336.246 67.8956 336.63 68.0479 337.234C68.4064 338.662 67.1786 340.093 64.4001 341.492C63.7101 341.842 62.7811 342.309 61.4793 342.534C60.8661 342.639 60.3141 342.664 59.8418 342.679C59.8318 342.952 59.7678 343.248 59.6014 343.552C59.1134 344.448 58.0976 344.875 56.5668 344.772C54.8823 344.684 53.4952 344.363 52.2716 344.081C51.2032 343.837 50.2827 343.629 49.56 343.677C48.2198 343.785 47.1869 344.858 45.9748 346.249L42.9488 349.785H42.9487H42.9487Z" fill="#F2F2F2"/>
<path d="M48.9781 464.149L47.7432 463.375L47.4444 461.95L47.7432 463.375L46.3034 463.54C46.2806 463.406 46.2024 463.099 46.0843 462.618C45.4399 459.984 43.4751 451.967 41.8362 439.342C40.6923 430.528 40.045 421.467 39.9113 412.406C39.7775 403.331 40.2072 396.461 40.5515 390.939C40.8118 386.774 41.1277 382.808 41.4378 378.945C42.263 368.624 43.0412 358.874 42.4621 348.081C42.3341 345.671 42.0652 340.656 39.1345 335.319C37.4343 332.224 35.0926 329.476 32.1732 327.154L33.9886 324.873C37.211 327.439 39.8017 330.483 41.6896 333.919C44.9391 339.837 45.2321 345.302 45.373 347.927C45.962 358.911 45.1752 368.755 44.3415 379.175C44.0342 383.025 43.7184 386.973 43.4594 391.121C43.118 396.592 42.6926 403.402 42.8249 412.361C42.9558 421.314 43.596 430.264 44.7242 438.966C46.3432 451.432 48.2796 459.33 48.9155 461.924C49.2541 463.31 49.3252 463.6 48.9781 464.149V464.149H48.9781Z" fill="#F2F2F2"/>
<path d="M26.8296 331.783C26.7101 331.783 26.5891 331.78 26.4668 331.771C23.9856 331.638 21.688 330.153 19.6365 327.359C18.6747 326.045 18.1825 324.545 17.2008 321.555C17.0486 321.095 16.3088 318.756 15.8592 315.539C15.5647 313.436 15.6017 312.557 16.0185 311.78C16.4809 310.916 17.2292 310.313 18.0715 309.906C18.0345 309.627 18.0643 309.34 18.1853 309.047C18.6818 307.832 20.0021 307.991 20.7163 308.068C21.0776 308.113 21.5286 308.173 22.0152 308.148C22.7806 308.111 23.1918 307.883 23.8149 307.542C24.411 307.214 25.1522 306.808 26.252 306.583C28.4202 306.131 30.237 306.745 30.8359 306.947C33.9872 307.997 35.5407 310.446 37.339 313.283C37.6975 313.851 38.9282 315.923 39.7405 318.762C40.3267 320.81 40.2442 321.72 40.0677 322.397C39.7092 323.789 38.8627 324.585 36.713 326.343C34.468 328.184 33.3413 329.106 32.3738 329.666C30.1217 330.966 28.7075 331.783 26.8296 331.783V331.783H26.8296Z" fill="#F2F2F2"/>
<path d="M677.906 462.824C677.906 463.363 677.468 463.801 676.929 463.801H0V461.848H676.929C677.468 461.848 677.906 462.285 677.906 462.824V462.824Z" fill="#E6E6E6"/>
<path d="M482.485 154.142C482.485 154.142 446.047 158.523 452.194 129.719C458.34 100.914 493.189 47.7101 493.189 47.7101L512.965 58.7986L490.261 112.457L500.035 120.166L482.485 154.142H482.485Z" fill="#A0616A"/>
<path d="M601.894 119.074L596.76 161.296L468.097 160.666L493.938 115.765L601.894 119.074Z" fill="#E87121"/>
<path d="M525.434 49.9534C533.308 38.9589 533.939 25.9288 526.845 20.8499C519.75 15.7709 507.616 20.5664 499.742 31.5609C491.869 42.5554 491.237 55.5856 498.331 60.6645C505.426 65.7435 517.56 60.9479 525.434 49.9534Z" fill="#A0616A"/>
<path d="M589.523 280.047V463.284H597.423V280.047H589.523Z" fill="#3F3D56"/>
<path d="M551.605 280.047V463.284H559.504V280.047H551.605Z" fill="#3F3D56"/>
<path d="M339.105 164.734V463.284H347.005V164.734H339.105Z" fill="#E6E6E6"/>
<path d="M466.289 280.047V463.284H474.188V280.047H466.289Z" fill="#3F3D56"/>
<path d="M436.059 280.047V463.284H443.958V280.047H436.059Z" fill="#3F3D56"/>
<path d="M582.413 276.098H429.864L400.6 317.599L552.395 326.646L582.413 276.098Z" fill="#3F3D56"/>
<path d="M303.079 134.108L303.772 104.011L211.703 111.091L211.232 131.486L303.079 134.108Z" fill="#A0616A"/>
<path d="M240.767 107.496L236.364 118.088L230.039 118.29C230.039 118.29 237.444 120.557 239.501 134.009L233.425 135.831C233.425 135.831 227.589 141.274 216.68 140.746L187.432 138.3L187.32 128.105L207.535 125.77C207.535 125.77 212.039 122.807 189.741 110.626C189.741 110.626 182.355 106.11 188.998 83.8092C189.911 80.7441 192.669 78.5426 195.867 78.4734C197.632 78.4352 199.286 79.0691 199.946 81.2609C201.626 86.8399 199.926 92.4017 204.544 95.8842C209.162 99.3668 240.767 107.496 240.767 107.496L240.767 107.496Z" fill="#2F2E41"/>
<path d="M570.996 249.17C570.996 249.17 539.229 303.19 467.346 293.455C450.24 291.138 435.19 280.97 426.616 265.99C410.044 237.037 384.879 186.341 393.038 157.635L271.462 134.436L261.884 104.916L393.459 87.8271C405.097 86.3156 416.497 91.9742 422.329 102.157L486.423 214.068L505.53 216.154L570.996 249.17V249.17Z" fill="#2F2E41"/>
<path d="M305.479 146.428L303.748 116.373L212.547 130.837L213.719 151.202L305.479 146.428Z" fill="#A0616A"/>
<path d="M241.228 124.915L237.691 135.827L231.403 136.537C231.403 136.537 238.966 138.201 242.099 151.444L236.189 153.748C236.189 153.748 230.811 159.644 219.895 159.995L190.545 159.909L189.612 149.757L209.574 145.803C209.574 145.803 213.825 142.487 190.619 132.139C190.619 132.139 182.893 128.232 187.721 105.469C188.384 102.341 190.956 99.9244 194.138 99.5982C195.894 99.4181 197.594 99.917 198.428 102.049C200.552 107.474 199.305 113.155 204.188 116.255C209.071 119.354 241.228 124.915 241.228 124.915H241.228Z" fill="#2F2E41"/>
<path d="M581.787 239.567C581.787 239.567 554.469 295.967 482.036 292.046C464.799 291.112 448.98 282.187 439.228 267.946C420.38 240.42 391.217 191.913 397.039 162.643L273.992 149.299L262.068 120.645L391.842 93.0278C403.321 90.585 415.14 95.3082 421.772 104.989L494.663 211.382L513.876 211.924L581.787 239.567V239.567Z" fill="#2F2E41"/>
<path d="M498.516 1.40247L492.196 6.14137L525.374 51.9508L531.694 50.3711L498.516 1.40247Z" fill="#3F3D56"/>
<path d="M584.783 103.128L621.121 101.548L636.921 172.632C636.921 172.632 603.742 297.423 564.244 292.684C564.244 292.684 539.755 274.518 539.755 268.2C539.755 261.881 506.577 246.085 506.577 246.085L498.677 219.231L522.376 182.899C522.376 182.899 531.856 154.466 563.454 138.67L584.783 103.128V103.128Z" fill="#E87121"/>
<path d="M377.023 158.415H53.929V166.313H211.921V463.285H219.821V166.313H377.023V158.415Z" fill="#E6E6E6"/>
<path d="M603.742 96.8093C627.301 96.8093 646.4 77.7142 646.4 54.1591C646.4 30.6041 627.301 11.509 603.742 11.509C580.183 11.509 561.084 30.6041 561.084 54.1591C561.084 77.7142 580.183 96.8093 603.742 96.8093Z" fill="#A0616A"/>
<path d="M455.006 108.656L425.211 120.504L483.668 197.906L504.207 182.11L455.006 108.656Z" fill="#E6E6E6"/>
<path d="M571.354 257.142C571.354 257.142 560.294 292.13 536.596 274.636C512.897 257.142 478.829 203.435 478.829 203.435L497.097 190.008L536.596 232.844L547.655 227.129L571.354 257.142Z" fill="#A0616A"/>
<path d="M588.733 133.931L625.071 156.046L571.354 272.938L536.595 225.549L588.733 133.931Z" fill="#E87121"/>
<path d="M492.753 204.103C500.309 199.741 500.953 186.712 494.191 175.001C487.428 163.29 475.82 157.333 468.264 161.695C460.707 166.057 460.063 179.087 466.826 190.797C473.588 202.508 485.196 208.465 492.753 204.103Z" fill="#A0616A"/>
<path d="M608.407 183.291C619.355 147.407 631.104 136.05 643.456 143.16C652.858 148.572 655.688 160.891 650.178 170.234C636.133 194.05 607.193 248.619 613.222 284.786C613.222 284.786 622.701 335.334 546.865 335.334C471.029 335.334 398.352 317.958 398.352 317.958L437.85 311.64L527.674 318.054C548.196 319.52 565.493 301.963 562.751 281.576C562.66 280.903 562.553 280.222 562.428 279.535C557.925 254.773 608.407 183.291 608.407 183.291V183.291Z" fill="#3F3D56"/>
<path d="M587.754 36.4788C584.269 46.2342 591.926 56.364 602.264 55.6749L602.511 55.6585C609.46 64.3437 609.652 76.6294 602.977 85.5273C602.429 96.9957 604.226 108.455 608.258 119.206L619.587 149.41L637.027 141.273L645.304 163.36L694 138.279L664.487 71.8876L655.481 35.8683C649.073 10.2423 622.928 -5.18249 597.394 1.59876L577.804 6.80147C562.327 10.9117 553.419 27.1127 558.241 42.3802V42.3802L587.754 36.4787" fill="#2F2E41"/>
</g>
<defs>
<clipPath id="clip0_72_177">
<rect width="694" height="465" fill="white"/>
</clipPath>
</defs>
</svg>
