<svg width="30" height="30" viewBox="0 0 30 30" fill="none" xmlns="http://www.w3.org/2000/svg">
<path d="M29.9921 14.9678C29.9921 16.0223 29.2108 16.8483 28.3253 16.8483H26.6585L26.695 26.2332C26.7054 28.3128 25.2105 30 23.3614 30H6.67244C4.83375 30 3.33883 28.3187 3.33883 26.2507V16.8483H1.66681C0.729229 16.8483 0 16.0281 0 14.9678C0 14.4405 0.156263 13.9719 0.520878 13.5618L13.8762 0.468658C14.2408 0.0585823 14.6575 0 15.0221 0C15.3867 0 15.8034 0.117165 16.116 0.410076L29.4192 13.5618C29.8359 13.9719 30.0442 14.4405 29.9921 14.9678ZM18.3349 13.1224C18.3349 11.0545 16.84 9.37317 15.0013 9.37317C13.1626 9.37317 11.6677 11.0545 11.6677 13.1224C11.6677 15.1904 13.1626 16.8717 15.0013 16.8717C16.84 16.8717 18.3349 15.1904 18.3349 13.1224ZM13.3345 18.7463C11.0322 18.7463 9.16745 20.8436 9.16745 23.4329C9.16745 23.9484 9.54248 24.3702 10.0009 24.3702H20.0017C20.4601 24.3702 20.8351 23.9484 20.8351 23.4329C20.8351 20.8436 18.9704 18.7463 16.6681 18.7463H13.3345Z" fill="white"/>
</svg>
