<svg width="30" height="30" viewBox="0 0 30 30" fill="none" xmlns="http://www.w3.org/2000/svg">
<path d="M16.5844 3.17191L15.4781 0.37134C15.2953 -0.114952 14.7234 -0.132529 14.5219 0.37134L13.4156 3.17191L10.9641 3.61133C10.5281 3.69336 10.3406 4.36714 10.6641 4.7714L12.4453 6.93921L12.0234 9.99172C11.9578 10.5366 12.4078 10.9584 12.8109 10.7065L15.0094 9.25349L17.1937 10.6831C17.5969 10.935 18.0516 10.5132 17.9813 9.96828L17.5594 6.91578L19.3406 4.7714C19.6594 4.373 19.4766 3.69922 19.0406 3.61133L16.5891 3.17191H16.5844ZM12 15.0011C11.1703 15.0011 10.5 15.8389 10.5 16.876V28.1251C10.5 29.1622 11.1703 30 12 30H18C18.8297 30 19.5 29.1622 19.5 28.1251V16.876C19.5 15.8389 18.8297 15.0011 18 15.0011H12ZM1.5 18.7508C0.670312 18.7508 0 19.5887 0 20.6257V28.1251C0 29.1622 0.670312 30 1.5 30H7.5C8.32969 30 9 29.1622 9 28.1251V20.6257C9 19.5887 8.32969 18.7508 7.5 18.7508H1.5ZM21 24.3754V28.1251C21 29.1622 21.6703 30 22.5 30H28.5C29.3297 30 30 29.1622 30 28.1251V24.3754C30 23.3384 29.3297 22.5006 28.5 22.5006H22.5C21.6703 22.5006 21 23.3384 21 24.3754Z" fill="white"/>
</svg>
