<svg width="30" height="30" viewBox="0 0 30 30" fill="none" xmlns="http://www.w3.org/2000/svg">
<path d="M9.375 4.28571C10.4121 4.28571 11.25 3.32812 11.25 2.14286C11.25 0.957589 10.4121 0 9.375 0H5.625C2.51953 0 0 2.87946 0 6.42857V23.5714C0 27.1205 2.51953 30 5.625 30H9.375C10.4121 30 11.25 29.0424 11.25 27.8571C11.25 26.6719 10.4121 25.7143 9.375 25.7143H5.625C4.58789 25.7143 3.75 24.7567 3.75 23.5714V6.42857C3.75 5.2433 4.58789 4.28571 5.625 4.28571H9.375ZM29.5605 16.1652C29.8418 15.8638 30 15.442 30 15C30 14.558 29.8418 14.1362 29.5605 13.8348L21.123 4.72768C20.7129 4.28571 20.1152 4.16518 19.5996 4.41964C19.084 4.67411 18.75 5.2567 18.75 5.89286V10.7143H11.25C10.2129 10.7143 9.375 11.6719 9.375 12.8571V17.1429C9.375 18.3281 10.2129 19.2857 11.25 19.2857H18.75V24.1071C18.75 24.75 19.084 25.3259 19.5996 25.5804C20.1152 25.8348 20.7129 25.7143 21.123 25.2723L29.5605 16.1652Z" fill="#343E3D"/>
</svg>
