<svg width="90" height="90" viewBox="0 0 90 90" fill="none" xmlns="http://www.w3.org/2000/svg">
<path d="M90 45C90 69.8528 69.8528 90 45 90C20.1472 90 0 69.8528 0 45C0 20.1472 20.1472 0 45 0C69.8528 0 90 20.1472 90 45Z" fill="url(#paint0_linear_58_63)"/>
<path d="M29.7742 41.2903C29.7742 43.9785 30.1398 46.3871 30.871 48.5161C31.6022 50.6452 32.6452 52.4516 34 53.9355C35.3548 55.3978 36.9892 56.5269 38.9032 57.3226C40.8172 58.0968 42.957 58.4839 45.3226 58.4839C47.7097 58.4839 49.8602 58.0968 51.7742 57.3226C53.6882 56.5269 55.3118 55.3978 56.6452 53.9355C58 52.4516 59.0323 50.6452 59.7419 48.5161C60.4731 46.3871 60.8387 43.9785 60.8387 41.2903C60.8387 38.6237 60.4731 36.2258 59.7419 34.0968C59.0323 31.9677 58 30.1613 56.6452 28.6774C55.3118 27.1935 53.6882 26.0538 51.7742 25.2581C49.8602 24.4624 47.7097 24.0645 45.3226 24.0645C42.957 24.0645 40.8172 24.4624 38.9032 25.2581C36.9892 26.0538 35.3548 27.1935 34 28.6774C32.6452 30.1613 31.6022 31.9677 30.871 34.0968C30.1398 36.2258 29.7742 38.6237 29.7742 41.2903ZM70.8387 73.8064H64.6452C63.7204 73.8064 62.9032 73.6774 62.1935 73.4194C61.4839 73.1828 60.828 72.7419 60.2258 72.0968L52.8065 63.9355C50.4839 64.6452 47.9892 65 45.3226 65C41.8602 65 38.6989 64.4086 35.8387 63.2258C33 62.043 30.5591 60.4086 28.5161 58.3226C26.4731 56.2151 24.8925 53.7097 23.7742 50.8064C22.6559 47.9032 22.0968 44.7312 22.0968 41.2903C22.0968 37.8495 22.6559 34.6774 23.7742 31.7742C24.8925 28.871 26.4731 26.3656 28.5161 24.2581C30.5591 22.1505 33 20.5054 35.8387 19.3226C38.6989 18.1398 41.8602 17.5484 45.3226 17.5484C48.8064 17.5484 51.9677 18.1398 54.8065 19.3226C57.6667 20.5054 60.1075 22.1505 62.129 24.2581C64.172 26.3656 65.7527 28.871 66.871 31.7742C67.9893 34.6774 68.5484 37.8495 68.5484 41.2903C68.5484 43.4194 68.3333 45.4516 67.9032 47.3871C67.4731 49.3011 66.8495 51.0968 66.0323 52.7742C65.215 54.4301 64.2151 55.957 63.0323 57.3548C61.8495 58.7312 60.5054 59.9355 59 60.9677L70.8387 73.8064Z" fill="#F2F2F2"/>
<defs>
<linearGradient id="paint0_linear_58_63" x1="45" y1="0" x2="45" y2="90" gradientUnits="userSpaceOnUse">
<stop offset="0.251153" stop-color="#E87121"/>
<stop offset="1" stop-color="#FFD05A"/>
</linearGradient>
</defs>
</svg>
