<svg width="283" height="280" viewBox="0 0 283 280" fill="none" xmlns="http://www.w3.org/2000/svg">
<path d="M283 140C283 217.32 219.648 280 141.5 280C63.3517 280 0 217.32 0 140C0 62.6801 63.3517 0 141.5 0C219.648 0 283 62.6801 283 140Z" fill="white"/>
<path d="M93.6233 128.459C93.6233 136.822 94.7729 144.315 97.0721 150.939C99.3712 157.563 102.651 163.183 106.911 167.799C111.171 172.349 116.311 175.861 122.329 178.337C128.347 180.746 135.076 181.95 142.514 181.95C150.02 181.95 156.783 180.746 162.801 178.337C168.819 175.861 173.925 172.349 178.118 167.799C182.378 163.183 185.624 157.563 187.855 150.939C190.154 144.315 191.304 136.822 191.304 128.459C191.304 120.162 190.154 112.703 187.855 106.079C185.624 99.4552 182.378 93.8351 178.118 89.2186C173.925 84.6021 168.819 81.0562 162.801 78.5807C156.783 76.1051 150.02 74.8674 142.514 74.8674C135.076 74.8674 128.347 76.1051 122.329 78.5807C116.311 81.0562 111.171 84.6021 106.911 89.2186C102.651 93.8351 99.3712 99.4552 97.0721 106.079C94.7729 112.703 93.6233 120.162 93.6233 128.459ZM222.748 229.62H203.273C200.365 229.62 197.796 229.219 195.564 228.416C193.333 227.68 191.27 226.308 189.377 224.301L166.047 198.91C158.744 201.118 150.9 202.222 142.514 202.222C131.627 202.222 121.687 200.382 112.693 196.703C103.767 193.023 96.0915 187.938 89.6674 181.448C83.2433 174.891 78.273 167.097 74.7566 158.065C71.2403 149.032 69.4821 139.164 69.4821 128.459C69.4821 117.754 71.2403 107.885 74.7566 98.853C78.273 89.8208 83.2433 82.0263 89.6674 75.4695C96.0915 68.9128 103.767 63.7945 112.693 60.1147C121.687 56.4349 131.627 54.595 142.514 54.595C153.469 54.595 163.41 56.4349 172.336 60.1147C181.33 63.7945 189.005 68.9128 195.361 75.4695C201.785 82.0263 206.756 89.8208 210.272 98.853C213.788 107.885 215.547 117.754 215.547 128.459C215.547 135.082 214.87 141.405 213.518 147.427C212.165 153.381 210.204 158.968 207.635 164.186C205.065 169.338 201.921 174.088 198.201 178.437C194.482 182.719 190.256 186.466 185.522 189.677L222.748 229.62Z" fill="black"/>
</svg>
