<svg width="28" height="30" viewBox="0 0 28 30" fill="none" xmlns="http://www.w3.org/2000/svg">
<path d="M7.40104 3.75C8.35625 1.56445 10.9521 0 14 0C17.0479 0 19.6437 1.56445 20.599 3.75H23.3333C25.9073 3.75 28 5.43164 28 7.5V26.25C28 28.3184 25.9073 30 23.3333 30H4.66667C2.09271 30 0 28.3184 0 26.25V7.5C0 5.43164 2.09271 3.75 4.66667 3.75H7.40104ZM16.3333 5.625C16.3333 4.58789 15.2906 3.75 14 3.75C12.7094 3.75 11.6667 4.58789 11.6667 5.625C11.6667 6.66211 12.7094 7.5 14 7.5C15.2906 7.5 16.3333 6.66211 16.3333 5.625ZM11.6667 21.5625C11.6667 22.0781 12.1917 22.5 12.8333 22.5H22.1667C22.8083 22.5 23.3333 22.0781 23.3333 21.5625C23.3333 21.0469 22.8083 20.625 22.1667 20.625H12.8333C12.1917 20.625 11.6667 21.0469 11.6667 21.5625ZM7 22.9688C7.96979 22.9688 8.75 22.3418 8.75 21.5625C8.75 20.7832 7.96979 20.1562 7 20.1562C6.03021 20.1562 5.25 20.7832 5.25 21.5625C5.25 22.3418 6.03021 22.9688 7 22.9688ZM11.6667 15.9375C11.6667 16.4531 12.1917 16.875 12.8333 16.875H22.1667C22.8083 16.875 23.3333 16.4531 23.3333 15.9375C23.3333 15.4219 22.8083 15 22.1667 15H12.8333C12.1917 15 11.6667 15.4219 11.6667 15.9375ZM7 17.3438C7.96979 17.3438 8.75 16.7168 8.75 15.9375C8.75 15.1582 7.96979 14.5312 7 14.5312C6.03021 14.5312 5.25 15.1582 5.25 15.9375C5.25 16.7168 6.03021 17.3438 7 17.3438Z" fill="white"/>
</svg>
