<svg width="30" height="30" viewBox="0 0 30 30" fill="none" xmlns="http://www.w3.org/2000/svg">
<path d="M15 30C23.2852 30 30 23.2852 30 15C30 6.71484 23.2852 0 15 0C6.71484 0 0 6.71484 0 15C0 23.2852 6.71484 30 15 30ZM9.94922 9.68555C10.4121 8.37891 11.6543 7.5 13.043 7.5H16.459C18.5039 7.5 20.1562 9.1582 20.1562 11.1973C20.1562 12.5215 19.4473 13.7461 18.2988 14.4082L16.4062 15.4922C16.3945 16.2539 15.7676 16.875 15 16.875C14.2207 16.875 13.5938 16.248 13.5938 15.4688V14.6777C13.5938 14.1738 13.8633 13.7109 14.3027 13.459L16.8984 11.9707C17.1738 11.8125 17.3438 11.5195 17.3438 11.2031C17.3438 10.7109 16.9453 10.3184 16.459 10.3184H13.043C12.8438 10.3184 12.668 10.4414 12.6035 10.6289L12.5801 10.6992C12.3223 11.4316 11.5137 11.8125 10.7871 11.5547C10.0605 11.2969 9.67383 10.4883 9.93164 9.76172L9.95508 9.69141L9.94922 9.68555ZM16.875 20.625C16.875 21.6621 16.0371 22.5 15 22.5C13.9629 22.5 13.125 21.6621 13.125 20.625C13.125 19.5879 13.9629 18.75 15 18.75C16.0371 18.75 16.875 19.5879 16.875 20.625Z" fill="white"/>
</svg>
