<svg width="597" height="506" viewBox="0 0 597 506" fill="none" xmlns="http://www.w3.org/2000/svg">
<path d="M575.427 413.696H21.4851C9.63843 413.696 0 404.058 0 392.211V325.54H596.912V392.211C596.912 404.058 587.274 413.696 575.427 413.696Z" fill="#E6E6E6"/>
<path d="M370.149 402.543H228.887V503.445H370.149V402.543Z" fill="#E6E6E6"/>
<path d="M378.646 490.7H220.39V503.445H378.646V490.7Z" fill="#E6E6E6"/>
<path d="M596.381 353.686H0V14.7442C0 6.6144 6.6144 0 14.7442 0H581.637C589.767 0 596.381 6.6144 596.381 14.7442V353.686Z" fill="#3F3D56"/>
<path d="M582.042 15.4009H13.8076V335.099H582.042V15.4009Z" fill="white"/>
<path d="M123.854 205.95C128.203 202.356 133.582 201.687 135.869 204.455C138.155 207.223 136.483 212.38 132.132 215.974C130.413 217.434 128.37 218.461 126.174 218.969L107.554 233.963L100.704 225.075L119.787 211.237C120.701 209.175 122.095 207.362 123.854 205.95H123.854Z" fill="#FFB6B6"/>
<path d="M16.2332 239.78C16.2238 239.117 16.23 233.333 20.5121 229.677C25.431 225.477 32.3719 227.177 34.8063 227.773C40.4299 229.151 40.8911 231.563 46.1723 234.042C56.0528 238.679 43.6729 236.306 49.5521 234.818C51.5872 234.304 80.8643 232.273 88.1519 227.788C102.325 219.064 111.983 213.774 111.983 213.774L118.296 226.401C118.296 226.401 109.167 239.094 96.3189 248.498C83.1396 258.144 76.55 262.967 66.5355 264.83C65.6731 264.991 44.4632 268.612 27.3803 255.85C23.4838 252.938 16.3445 247.605 16.2332 239.78L16.2332 239.78Z" fill="#E87121"/>
<path d="M35.8169 207.668C47.9631 207.668 57.8095 197.821 57.8095 185.675C57.8095 173.529 47.9631 163.683 35.8169 163.683C23.6707 163.683 13.8242 173.529 13.8242 185.675C13.8242 197.821 23.6707 207.668 35.8169 207.668Z" fill="#FFB6B6"/>
<path d="M208.055 333.43L185.406 310.246L173.714 322.442L190.589 344.672L207.326 346.586L208.055 333.43Z" fill="#FFB6B6"/>
<path d="M78.7257 289.955C80.0504 290.065 84.2603 290.908 88.2841 288.694C91.0303 287.183 92.4387 284.937 92.9144 284.222C98.8158 275.359 121.467 261.538 141.795 260.687C146.399 260.495 149.429 261.028 152.183 262.464C156.089 264.5 157.648 267.416 162.603 274.247C165.314 277.983 168.314 281.504 171.057 285.216C187.119 306.953 193.208 308.659 192.586 315.627C191.896 323.359 183.557 330.694 178.015 329.848C175.745 329.501 174.866 327.923 171.834 324.728C162.943 315.36 159.264 317.091 152.934 309.916C145.544 301.539 146.511 294.593 142.655 294.324C139.08 294.076 137.56 300.001 129.926 307.873C126.433 311.474 123.946 313.127 116.368 318.384C86.857 338.857 86.3861 340.296 80.4305 341.928C77.8248 342.643 59.3309 347.713 52.7429 339.644C42.4334 327.018 66.7888 288.963 78.7257 289.955V289.955Z" fill="#2F2E41"/>
<path d="M201.131 338.67C202.796 337.922 204.744 337.047 205.371 335.036C205.795 333.675 205.551 331.997 204.674 330.837C203.663 329.499 202.166 329.323 202.227 329.086C202.319 328.726 205.858 328.867 209.744 330.24C210.477 330.499 213.799 331.713 218.024 335.012C221.409 337.655 220.954 338.185 223.077 339.709C229.593 344.386 235.705 340.7 239.231 345.086C240.592 346.78 241.172 349.183 240.599 351.127C239.449 355.03 233.857 356.373 230.8 357.067C223.438 358.737 217.866 357.374 212.048 356.393C192.262 353.059 181.144 356.096 179.656 351.512C179.375 350.644 179.832 350.718 181.358 344.351C182.864 338.068 182.814 336.342 184.097 335.839C186.027 335.081 187.323 338.527 192.186 339.706C196.496 340.751 200.051 339.154 201.131 338.67H201.131Z" fill="#2F2E41"/>
<path d="M167.788 409.275L162.066 377.373L145.543 380.899L147.023 408.769L159.798 419.752L167.788 409.275Z" fill="#FFB6B6"/>
<path d="M85.1877 300.678C86.2221 301.513 89.232 304.575 93.8047 305.003C96.9254 305.294 99.3523 304.226 100.147 303.902C110.007 299.882 136.511 301.165 153.809 311.877C157.727 314.302 159.935 316.445 161.407 319.18C163.496 323.057 163.148 326.346 163.413 334.781C163.558 339.395 164.063 343.992 164.248 348.605C165.333 375.61 169.413 380.441 164.985 385.858C160.072 391.868 149.054 393.255 144.943 389.442C143.26 387.881 143.419 386.081 142.704 381.735C140.607 368.991 136.592 368.357 135.383 358.866C133.972 347.784 138.672 342.58 135.633 340.193C132.814 337.979 128.229 342.029 117.492 344.255C112.579 345.274 109.593 345.245 100.37 345.339C64.4556 345.708 63.2579 346.634 57.4131 344.641C54.8559 343.769 36.706 337.58 35.7856 327.204C34.3453 310.966 75.8675 293.154 85.1877 300.678H85.1877Z" fill="#2F2E41"/>
<path d="M159.117 409.722C160.915 410.039 163.018 410.409 164.666 409.096C165.781 408.208 166.521 406.683 166.447 405.231C166.361 403.556 165.222 402.57 165.405 402.408C165.684 402.161 168.533 404.266 170.977 407.584C171.438 408.21 173.505 411.08 175.149 416.182C176.466 420.27 175.792 420.452 176.692 422.905C179.458 430.435 186.585 430.817 187.039 436.426C187.215 438.592 186.345 440.906 184.78 442.193C181.636 444.777 176.254 442.748 173.336 441.605C166.306 438.854 162.462 434.597 158.198 430.518C143.698 416.648 132.793 412.918 134.136 408.29C134.39 407.414 134.728 407.732 139.565 403.32C144.34 398.966 145.268 397.511 146.611 397.815C148.634 398.272 147.772 401.851 151.134 405.557C154.113 408.841 157.951 409.517 159.117 409.722Z" fill="#2F2E41"/>
<path d="M38.8152 189.88C39.6714 186.817 38.596 185.701 39.6921 184.326C39.6921 184.326 40.1332 183.773 44.0765 182.28C42.9131 175.53 43.7842 174.388 43.7842 174.388C44.7882 173.073 46.7994 172.755 48.1686 172.927C51.0644 173.291 51.577 175.908 53.4299 175.85C55.9895 175.769 59.0594 170.645 58.1066 166.204C57.3293 162.582 53.9777 159.891 53.1376 160.358C52.3046 160.821 49.3059 158.78 48.1686 159.189C47.392 159.468 43.7363 159.097 42.9073 159.481C42.0021 159.901 39.4097 162.516 39.1619 162.187C37.4395 159.897 37.4762 159.098 36.4769 158.604C34.7062 157.73 32.7812 159.346 29.4619 160.943C22.6323 164.228 20.6325 162.268 17.4779 165.035C15.8843 166.432 15.0298 169.103 13.3858 174.388C11.0866 181.779 9.93708 185.474 11.0474 189.003C12.1798 192.601 13.8474 191.818 16.3087 196.895C19.0485 202.546 18.1042 205.831 20.6931 207.125C22.694 208.125 25.9095 207.489 27.1235 205.664C29.2022 202.539 23.8296 198.312 25.6621 193.387C26.7869 190.364 30.2569 188.072 32.3848 188.711C34.7909 189.432 34.9681 193.746 36.4769 193.68C37.769 193.622 38.6661 190.413 38.8153 189.88H38.8152Z" fill="#2F2E41"/>
<path d="M22.1543 210.925C26.6548 205.878 44.9863 211.101 46.7069 219.109C47.4146 222.402 44.802 223.793 45.5378 227.585C46.6138 233.132 52.7068 232.754 57.2295 238.4C63.6502 246.416 57.0355 254.252 64.2445 267.629C65.7849 270.488 67.0833 272.897 69.798 275.229C76.0276 280.58 81.8252 278.745 84.9973 283.705C87.3693 287.415 86.3947 291.988 86.1664 293.059C85.2303 297.451 82.693 298.521 80.9052 302.12C77.9306 308.108 81.2985 312.503 81.4897 319.657C81.729 328.608 76.9724 341.016 67.4597 345.087C56.7726 349.66 43.8831 342.086 37.6458 334.564C33.924 330.076 32.8436 325.937 31.2154 320.827C23.9385 297.989 19.8273 300.055 14.2624 281.952C7.90073 261.257 6.6501 237.011 14.2624 229.339C15.2714 228.322 18.0481 225.972 19.816 221.739C22.1949 216.044 20.1397 213.183 22.1543 210.925L22.1543 210.925Z" fill="#E87121"/>
<path d="M88.6538 328.392C92.143 332.825 92.6839 338.219 89.8621 340.439C87.0404 342.66 81.9253 340.865 78.4354 336.43C77.017 334.677 76.039 332.61 75.5831 330.402L61.0361 311.431L68.5528 305.698L83.4643 324.201C85.504 325.164 87.2835 326.601 88.6538 328.392H88.6538Z" fill="#FFB6B6"/>
<path d="M35.3778 230.156C36.0249 230.012 41.6886 228.837 46.1412 232.284C51.2561 236.242 51.0083 243.384 50.9214 245.889C50.7207 251.675 48.4531 252.619 47.1042 258.295C44.5804 268.913 49.3867 278.782 52.0421 284.234C52.9612 286.121 55.9142 291.896 61.7922 298.115C73.2243 310.21 83.4246 316.575 83.4246 316.575L72.4666 326.315C72.4666 326.315 55.0116 320.995 43.1843 310.336C31.0521 299.402 12.3949 260.717 8.52724 251.293C8.19416 250.482 12.9122 263.675 21.9207 244.348C23.9755 239.939 27.7404 231.862 35.3778 230.156H35.3778Z" fill="#E87121"/>
<path d="M315.838 221.081L302.754 214.883C308.12 222.372 312.744 234.069 315.22 243.376C319.411 234.706 326.168 224.098 332.856 217.762L319.028 221.319C327.549 179.559 359.598 149.58 396.298 149.58L396.818 148.071C358.483 148.071 324.538 177.635 315.838 221.081Z" fill="#3F3D56"/>
<path d="M376.056 284.71H293.388C289.882 284.71 287.029 281.857 287.029 278.351C287.029 274.844 289.882 271.992 293.388 271.992H376.056C379.563 271.992 382.415 274.844 382.415 278.351C382.415 281.857 379.563 284.71 376.056 284.71Z" fill="#E87121"/>
<path d="M486.056 284.71H403.388C399.882 284.71 397.029 281.857 397.029 278.351C397.029 274.844 399.882 271.992 403.388 271.992H486.056C489.563 271.992 492.415 274.844 492.415 278.351C492.415 281.857 489.563 284.71 486.056 284.71Z" fill="#E6E6E6"/>
<path d="M437.118 111.717H356.761C354.735 111.717 353.087 110.069 353.087 108.043C353.087 106.017 354.735 104.369 356.761 104.369H437.118C439.144 104.369 440.792 106.017 440.792 108.043C440.792 110.069 439.144 111.717 437.118 111.717V111.717Z" fill="#3F3D56"/>
<path d="M480.239 150.915H313.641C311.615 150.915 309.967 149.267 309.967 147.241C309.967 145.215 311.615 143.567 313.641 143.567H480.239C482.265 143.567 483.913 145.215 483.913 147.241C483.913 149.267 482.265 150.915 480.239 150.915Z" fill="#3F3D56"/>
<path d="M36.1211 504.384C36.1211 505.044 36.6511 505.574 37.3112 505.574H559.601C560.261 505.574 560.791 505.044 560.791 504.384C560.791 503.724 560.261 503.194 559.601 503.194H37.3112C36.6511 503.194 36.1211 503.724 36.1211 504.384Z" fill="#3F3D56"/>
<path d="M164.369 222.296C164.227 222.296 164.086 222.291 163.944 222.282C155.575 221.745 126.939 217.693 109.844 188.134C108.435 185.701 108.712 182.606 110.534 180.436L142.194 142.714C143.489 141.171 145.489 140.283 147.514 140.307C148.914 140.34 152.229 140.694 152.873 143.249C156.676 158.346 172.736 176.096 192.05 178.449C194.008 178.687 195.579 180.434 196.254 183.121C196.78 185.213 196.294 187.369 194.919 189.037L169.557 219.835C168.268 221.399 166.378 222.296 164.369 222.296V222.296ZM147.393 141.825C145.845 141.825 144.341 142.518 143.357 143.69L111.697 181.411C110.284 183.095 110.068 185.491 111.158 187.374C127.876 216.281 155.863 220.241 164.042 220.767C165.712 220.879 167.316 220.167 168.385 218.87L193.747 188.072C194.812 186.78 195.189 185.11 194.782 183.491C194.383 181.905 193.408 180.144 191.866 179.955C171.914 177.526 155.326 159.203 151.4 143.62C151.082 142.358 149.168 141.865 147.483 141.825C147.453 141.825 147.423 141.825 147.393 141.825H147.393Z" fill="#3F3D56"/>
<path d="M129.029 189.376L151.855 166.102C153.415 164.512 150.97 162.063 149.408 163.656L126.583 186.929C125.022 188.52 127.467 190.969 129.029 189.376Z" fill="#E6E6E6"/>
<path d="M142.806 195.933C149.106 190.287 154.58 183.749 159.063 176.575C160.246 174.682 157.254 172.943 156.075 174.829C151.742 181.765 146.45 188.029 140.36 193.487C138.699 194.976 141.152 197.416 142.806 195.933H142.806Z" fill="#E6E6E6"/>
<path d="M155.223 203.784C160.959 197.431 165.841 190.34 169.684 182.691C170.682 180.707 167.698 178.953 166.697 180.945C162.983 188.335 158.319 195.198 152.777 201.338C151.288 202.987 153.727 205.441 155.223 203.784H155.223Z" fill="#E6E6E6"/>
<path d="M145.443 161.885C158.153 161.885 168.456 151.799 168.456 139.357C168.456 126.915 158.153 116.829 145.443 116.829C132.734 116.829 122.431 126.915 122.431 139.357C122.431 151.799 132.734 161.885 145.443 161.885Z" fill="#E87121"/>
<path d="M157.417 150.043C153.878 141.341 150.339 132.64 146.8 123.938C146.311 122.736 144.78 122.693 144.303 123.938C140.806 133.061 138.52 142.58 137.422 152.287C137.235 153.94 139.826 153.926 140.011 152.287C140.441 148.488 141.08 144.719 141.899 140.989C144.815 141.142 147.756 140.815 150.57 140.036C152.02 143.601 153.47 147.166 154.92 150.731C155.54 152.255 158.046 151.589 157.417 150.043ZM142.486 138.429C143.358 134.859 144.404 131.331 145.617 127.859L149.586 137.617C147.262 138.228 144.884 138.499 142.486 138.429Z" fill="white"/>
</svg>
