<svg width="40" height="40" viewBox="0 0 40 40" fill="none" xmlns="http://www.w3.org/2000/svg">
<path d="M20 0C19.3192 0 18.6421 0.15624 18.032 0.468721L1.99033 8.69849C0.77009 9.32685 0 10.4987 0 11.769V28.2285C0 29.5022 0.77009 30.674 1.99033 31.3024L18.032 39.5287C19.2522 40.1571 20.7478 40.1571 21.968 39.5287L38.0097 31.3024C39.2336 30.674 40 29.4988 40 28.2285V11.769C40 10.4987 39.2299 9.32685 38.0097 8.69849L21.968 0.468721C21.3579 0.15624 20.6808 0 20 0ZM20 1.73902C20.3571 1.73902 20.718 1.82054 21.0379 1.98357L37.0796 10.2133C37.7158 10.5428 38.0952 11.1338 38.0952 11.769V28.2285C38.0952 28.8636 37.7158 29.4546 37.0759 29.7841L21.0379 38.0139C20.3981 38.3399 19.6019 38.3399 18.9621 38.0139L2.92411 29.7841C2.28423 29.4546 1.90476 28.867 1.90476 28.2285V11.769C1.90476 11.1338 2.28423 10.5428 2.92411 10.2133L18.9621 1.98357C19.282 1.82054 19.6429 1.73902 20 1.73902ZM20 8.6951C13.1808 8.6951 7.61905 13.7729 7.61905 19.9987C7.61905 26.2246 13.1808 31.3024 20 31.3024C23.8951 31.3024 27.5112 29.6448 29.8475 26.8359L30.4985 26.0513L24.7321 23.0013L24.2113 23.5175C23.1362 24.5908 21.6109 25.2158 20 25.2158C16.8415 25.2158 14.2857 22.8824 14.2857 19.9987C14.2857 17.1151 16.8415 14.7817 20 14.7817C21.6109 14.7817 23.1362 15.4066 24.2113 16.4799L24.7321 16.9962L30.4985 13.9461L29.8475 13.1615C27.5112 10.3526 23.8951 8.6951 20 8.6951ZM20 10.4341C22.9278 10.4341 25.6064 11.5787 27.567 13.4876L24.9554 14.8666C23.5789 13.7661 21.8676 13.0426 20 13.0426C15.8073 13.0426 12.381 16.1708 12.381 19.9987C12.381 23.8266 15.8073 26.9548 20 26.9548C21.8676 26.9548 23.5789 26.2313 24.9554 25.1309L27.567 26.5099C25.6064 28.4187 22.9278 29.5633 20 29.5633C14.215 29.5633 9.52381 25.2803 9.52381 19.9987C9.52381 14.7171 14.215 10.4341 20 10.4341ZM29.5238 15.6512V17.3902H27.619V19.1292H29.5238V20.8682H27.619V22.6073H29.5238V24.3463H31.4286V22.6073H33.3333V24.3463H35.2381V22.6073H37.1429V20.8682H35.2381V19.1292H37.1429V17.3902H35.2381V15.6512H33.3333V17.3902H31.4286V15.6512H29.5238ZM31.4286 19.1292H33.3333V20.8682H31.4286V19.1292Z" fill="black"/>
</svg>
