<svg width="40" height="40" viewBox="0 0 40 40" fill="none" xmlns="http://www.w3.org/2000/svg">
<path d="M29.1174 24.445C30.1559 23.9216 31.597 23.4684 31.597 23.4684C31.597 23.4684 27.4962 24.0153 23.4165 24.2653C18.4256 24.57 13.0638 24.6325 10.3723 24.3669C4.00381 23.7419 13.8691 22.0153 13.8691 22.0153C13.8691 22.0153 10.0438 21.8278 5.32836 23.4997C-0.23478 25.484 19.1038 26.3903 29.1174 24.445ZM20.068 21.9372C18.0547 18.6013 11.2624 15.6717 20.068 10.5467C31.0523 4.15619 25.4193 0 25.4193 0C27.6975 6.60147 17.4083 8.60145 13.689 12.703C11.1564 15.5076 14.9288 18.5154 20.068 21.9372ZM32.2116 8.17177C32.2222 8.17177 13.6466 11.5936 22.5158 19.1247C25.1332 21.3435 21.8271 23.3434 21.8271 23.3434C21.8271 23.3434 28.471 20.8122 25.4193 17.6482C22.5688 14.6951 20.3859 13.2264 32.2116 8.17177ZM31.5652 29.3043C31.5073 29.3787 31.436 29.4471 31.3533 29.5074C44.9486 26.8746 39.947 20.2185 33.4514 21.906C33.1006 22.001 32.7974 22.1727 32.5825 22.3981C32.9618 22.2969 33.3516 22.2185 33.7481 22.1638C37.033 21.656 41.7484 25.4059 31.5652 29.3043ZM36.5625 34.1714C36.5625 34.1714 38.099 35.1011 34.8777 35.8277C28.7423 37.1948 9.36138 37.6089 3.97837 35.8823C2.03922 35.2652 5.67381 34.398 6.81823 34.2183C8.00503 34.0308 8.6938 34.062 8.6938 34.062C6.54272 32.9449 -5.21936 36.2573 2.71739 37.2026C24.3596 39.7963 42.1786 36.0386 36.5625 34.1714ZM12.873 30.9371C4.53363 32.6558 17.9488 36.2026 28.5664 32.8511C27.5309 32.5545 26.5313 32.1939 25.5782 31.773C20.8416 32.4371 18.6481 32.4839 14.346 32.1246C10.7961 31.8277 12.873 30.9371 12.873 30.9371ZM31.9255 38.5307C23.5861 39.687 13.2969 39.5542 7.20394 38.812C7.20394 38.8042 8.45432 39.5698 14.8758 39.8745C24.6457 40.3354 39.6503 39.6167 40 36.2105C40 36.2105 39.3218 37.4995 31.9255 38.5307ZM27.3054 27.5778C21.0323 28.4684 17.3977 28.4449 12.8095 28.0934C9.25965 27.8199 11.5803 26.5543 11.5803 26.5543C2.38255 28.8043 16.6878 31.3511 29.5413 28.5777C28.7106 28.3615 27.9494 28.021 27.3054 27.5778Z" fill="black"/>
</svg>
