<svg width="35" height="32" viewBox="0 0 35 32" fill="none" xmlns="http://www.w3.org/2000/svg">
<path d="M34.4347 25.09C33.7007 22.522 27.1439 0 22.8999 0C20.7467 0 19.1467 2.5816 17.5995 5.0784C16.6071 6.68 15.6695 8.1928 14.7163 8.8128C14.3027 9.082 13.9303 9.2888 13.5703 9.4888C12.8471 9.8904 12.1643 10.27 11.4043 11.0304C10.4891 11.9452 9.8339 12.8476 9.6231 13.15L0.255497 16.7768C0.117097 16.8304 0.0198972 16.9564 0.00269719 17.1036C-0.0145028 17.2508 0.0514972 17.3956 0.173897 17.4796L7.3239 22.38L7.3251 22.378C7.4051 22.4328 7.5035 22.46 7.6047 22.4464C7.6227 22.444 9.4571 22.206 11.1203 23.204C14.3435 25.1376 14.3999 30.7448 14.3999 30.8012C14.4003 30.9196 14.4535 31.0324 14.5447 31.108C14.6171 31.168 14.7079 31.2 14.7999 31.2C14.8247 31.2 14.8487 31.198 14.8731 31.1932C14.9575 31.1776 16.9567 30.7864 19.0231 28.7432C20.2691 27.5108 21.1995 26.0728 22.0203 24.804C23.2235 22.944 24.2623 21.3376 25.8235 21.0908C28.0203 20.7428 32.3131 24.152 33.7799 25.4948C33.9119 25.6156 34.1075 25.634 34.2607 25.54C34.4123 25.446 34.4835 25.2624 34.4347 25.09ZM11.9699 11.596C12.6511 10.9148 13.2571 10.578 13.9591 10.188C14.3311 9.9812 14.7159 9.7676 15.1527 9.4832C16.2555 8.766 17.2387 7.1792 18.2795 5.5C18.9527 4.414 19.6367 3.3136 20.3499 2.4492C19.4439 4.0612 18.4579 6.414 17.2667 9.352C16.1687 12.06 15.1319 14.6176 14.2195 16.022C14.2003 16.0516 14.1799 16.08 14.1607 16.1092L10.4375 13.3884C10.7243 12.9972 11.2715 12.294 11.9699 11.596ZM7.5867 21.59L1.2519 17.2492L9.8231 13.9304L13.6955 16.76C11.5691 19.5296 8.4035 21.192 7.5867 21.59ZM25.6983 20.3004C23.7847 20.6032 22.6559 22.3484 21.3487 24.3692C20.5499 25.6036 19.6447 27.0028 18.4603 28.174C17.1407 29.4788 15.8431 30.05 15.1803 30.276C15.0883 28.748 14.5591 24.334 11.5319 22.5176C10.6923 22.014 9.8247 21.784 9.1099 21.6856C10.6807 20.7764 13.2219 19.0256 14.8903 16.4572C15.8443 14.9884 16.8951 12.3964 18.0079 9.652C19.5227 5.9164 21.5967 0.8 22.8999 0.8C25.5203 0.8 30.4923 14.532 33.2911 24.02C31.5399 22.5812 27.9727 19.9396 25.6983 20.3004Z" fill="black"/>
</svg>
