<svg width="36" height="36" viewBox="0 0 36 36" fill="none" xmlns="http://www.w3.org/2000/svg">
<path d="M17.9919 36C17.4521 36 16.9042 35.8714 16.4288 35.6285L11.4575 33.0211C10.7162 32.6497 11.0788 32.5211 11.3205 32.4496C12.3115 32.1425 12.513 32.0782 13.5685 31.5424C13.6813 31.4853 13.8263 31.5067 13.9391 31.571L17.7583 33.5783C17.8953 33.6498 18.0886 33.6498 18.2175 33.5783L33.0994 25.9633C33.2363 25.8919 33.325 25.749 33.325 25.6061V10.376C33.325 10.226 33.2363 10.0903 33.0913 10.0117L18.2175 2.40381C18.0806 2.33237 17.8953 2.33237 17.7583 2.40381L2.89257 10.0189C2.74754 10.0903 2.65891 10.2332 2.65891 10.3832V25.6061C2.65891 25.749 2.74754 25.8919 2.89257 25.9561L6.96956 28.0421C9.18532 29.0207 10.5389 27.8706 10.5389 26.7062V11.6762C10.5389 11.4619 10.7323 11.2975 10.974 11.2975H12.8594C13.0931 11.2975 13.2945 11.4619 13.2945 11.6762V26.7134C13.2945 29.3279 11.6831 30.8281 8.8872 30.8281C8.02507 30.8281 7.34825 30.8281 5.46285 29.9994L1.56312 28.0064C0.59624 27.5134 0 26.5919 0 25.599V10.376C0 9.39022 0.59624 8.46155 1.56312 7.96865L16.4288 0.353606C17.3715 -0.117869 18.6204 -0.117869 19.5551 0.353606L34.4369 7.97579C35.4038 8.4687 36 9.39022 36 10.3832V25.6061C36 26.5919 35.4038 27.5134 34.4369 28.0135L19.5551 35.6285C19.0797 35.8714 18.5398 36 17.9919 36ZM30.0054 20.9914C30.0054 18.1411 27.8299 17.3839 23.2614 16.8481C18.6365 16.3052 18.1692 16.0266 18.1692 15.0694C18.1692 14.2764 18.564 13.2192 21.9884 13.2192C25.0421 13.2192 26.1701 13.8049 26.6374 15.6337C26.6777 15.8051 26.855 15.9337 27.0564 15.9337H28.9902C29.111 15.9337 29.2238 15.8909 29.3044 15.8123C29.385 15.7337 29.4252 15.6266 29.4172 15.5194C29.1191 12.3691 26.7583 10.9047 21.9884 10.9047C17.7422 10.9047 15.2122 12.4905 15.2122 15.1551C15.2122 18.0411 17.7341 18.8412 21.803 19.1983C26.6777 19.6198 27.0564 20.2556 27.0564 21.1057C27.0564 22.5772 25.7189 23.2059 22.5846 23.2059C18.6446 23.2059 17.7825 22.3272 17.4924 20.5913C17.4602 20.4056 17.2829 20.2699 17.0654 20.2699H15.1397C14.8979 20.2699 14.7126 20.4413 14.7126 20.6485C14.7126 22.8701 16.0743 25.5204 22.5927 25.5204C27.2981 25.5132 30.0054 23.8631 30.0054 20.9914Z" fill="black"/>
</svg>
