<svg width="40" height="40" viewBox="0 0 40 40" fill="none" xmlns="http://www.w3.org/2000/svg">
<path d="M39.2667 15.0442C38.5792 12.2854 37.2757 10.2051 34.499 10.2051H30.9187V14.4371C30.9187 17.7227 28.1331 20.4905 24.9546 20.4905H15.4192C12.8122 20.4905 10.6515 22.7226 10.6515 25.3385V34.4275C10.6515 37.0167 12.9014 38.5345 15.4192 39.2756C18.437 40.1595 21.3387 40.3202 24.9546 39.2756C27.3563 38.5792 29.7223 37.1774 29.7223 34.4275V30.7937H20.1959V29.5795H34.499C37.2757 29.5795 38.3024 27.642 39.2667 24.7403C40.2666 21.7494 40.222 18.8745 39.2667 15.0442ZM25.5528 33.2133C26.5439 33.2133 27.3474 34.0257 27.3474 35.0257C27.3474 36.0346 26.5439 36.8471 25.5528 36.8471C24.5707 36.8471 23.7582 36.0257 23.7582 35.0257C23.7672 34.0168 24.5707 33.2133 25.5528 33.2133ZM14.9817 19.2941H24.5171C27.1688 19.2941 29.2848 17.1067 29.2848 14.4461V5.34815C29.2848 2.75895 27.1063 0.821516 24.5171 0.384031C21.3208 -0.142737 17.8477 -0.115952 14.9817 0.392959C10.9461 1.10722 10.214 2.59824 10.214 5.35708V8.99088H19.7584V10.2051H6.63378C3.85709 10.2051 1.42859 11.8747 0.669688 15.0442C-0.205284 18.6781 -0.240997 20.9458 0.669688 24.7403C1.34824 27.5617 2.96426 29.5795 5.74095 29.5795H9.01764V25.2225C9.01764 22.0708 11.7408 19.2941 14.9817 19.2941ZM14.3835 6.56239C13.3925 6.56239 12.589 5.74992 12.589 4.74995C12.5979 3.74106 13.3925 2.92859 14.3835 2.92859C15.3656 2.92859 16.1781 3.74999 16.1781 4.74995C16.1781 5.74992 15.3746 6.56239 14.3835 6.56239Z" fill="black"/>
</svg>
