<svg width="40" height="40" viewBox="0 0 40 40" fill="none" xmlns="http://www.w3.org/2000/svg">
<path d="M22.1182 0.00510789C21.9688 0.0323517 21.8262 0.097056 21.7107 0.195815L13.7239 3.13815C13.6153 3.1722 13.5134 3.22669 13.4251 3.30161L5.54696 10.6847C5.48244 10.7392 5.4281 10.8039 5.38396 10.8754L0.222421 19.7569C0.19186 19.8011 0.164694 19.8454 0.140923 19.8931L0.113757 19.9476C0.10357 19.9578 0.0967788 19.9646 0.0865913 19.9748C0.0865913 19.9918 0.0865913 20.0123 0.0865913 20.0293C0.0764038 20.0463 0.0662172 20.0668 0.0594253 20.0838C0.0492378 20.094 0.0424468 20.1008 0.0322593 20.111C0.0322593 20.1213 0.0322593 20.1281 0.0322593 20.1383C0.0220718 20.1553 0.0118852 20.1757 0.0050933 20.1928C0.0050933 20.203 0.0050933 20.2098 0.0050933 20.22C0.0050933 20.237 0.0050933 20.2575 0.0050933 20.2745C0.0050933 20.2847 0.0050933 20.2915 0.0050933 20.3017C0.0050933 20.3188 0.0050933 20.3392 0.0050933 20.3562C0.0050933 20.3664 0.0050933 20.3733 0.0050933 20.3835C-0.00169777 20.438 -0.00169777 20.4925 0.0050933 20.5469V31.3355C0.00169777 31.3729 0.00169777 31.407 0.0050933 31.4445V31.4717C0.00169777 31.5534 0.0118852 31.6386 0.0322593 31.7169C0.208838 35.514 1.7539 37.7378 3.61817 38.8275C5.39075 39.8662 7.29237 39.965 8.48088 39.999C8.57257 40.0024 8.69821 39.9956 8.77971 39.999H8.86121C8.90875 39.9922 8.95289 39.9854 8.99704 39.9718H9.0242L36.8693 38.0647C36.9339 38.0715 36.995 38.0715 37.0595 38.0647C37.1546 38.0511 37.2463 38.0238 37.3312 37.983C37.3889 37.9523 37.4432 37.9149 37.4942 37.874C37.5044 37.874 37.5111 37.874 37.5213 37.874C37.7862 37.6697 37.9152 37.3325 37.8473 37.0022L39.9119 9.75839C39.9153 9.74136 39.9085 9.72093 39.9119 9.7039L39.9934 8.66864C40.007 8.54945 40.0002 8.43026 39.9663 8.31447C39.9663 7.42905 39.8848 6.55043 39.6674 5.69906C38.9985 3.09047 36.9848 0.839449 33.2291 0.168571C33.1748 0.154949 33.1204 0.144732 33.0661 0.141327C33.0491 0.141327 33.0288 0.141327 33.0118 0.141327L22.3899 0.00510789C22.3254 -0.00170263 22.2642 -0.00170263 22.1997 0.00510789C22.1725 0.00510789 22.1454 0.00510789 22.1182 0.00510789ZM25.188 1.77596L29.7247 1.83044L27.2254 3.21988L25.188 1.77596ZM22.254 1.85769L26.2203 4.6638L23.395 13.6815L12.7188 23.6527L3.99849 25.6143L1.85238 20.438L6.82376 11.8562L14.4846 4.71829L22.254 1.85769ZM33.1204 1.93942C36.1834 2.549 37.4602 4.1053 37.9832 6.13496C38.4212 7.84111 38.1597 9.88439 37.6843 11.7744L28.6924 4.39136L33.1204 1.93942ZM27.6872 5.80804L35.8914 12.5645L25.351 13.2728L27.6872 5.80804ZM36.9237 14.2264C35.107 19.1507 31.9421 23.336 28.3392 27.2762L25.2423 14.9892L36.9237 14.2264ZM23.6667 15.8065L26.6821 27.8755L14.8377 24.0341L23.6667 15.8065ZM37.5757 17.3594L36.2174 35.3403L29.1814 29.047C32.4617 25.5257 35.4941 21.7423 37.5757 17.3594ZM1.74372 24.7697L2.53153 26.5951L1.74372 28.039V24.7697ZM13.7783 25.5326L26.1388 29.5102C21.5307 33.6682 16.4507 36.9511 10.0565 37.9285L13.7783 25.5326ZM11.931 25.6143L8.64388 36.5663L4.67764 27.2489L11.931 25.6143ZM3.37368 28.6384L7.42141 38.1464C6.46381 38.0511 5.42471 37.8502 4.48748 37.3019C3.09183 36.4846 1.9135 34.9793 1.77088 31.5807L3.37368 28.6384ZM27.9046 30.273L34.8862 36.4846L17.3913 37.6561C21.3372 35.8443 24.7499 33.1847 27.9046 30.273Z" fill="black"/>
</svg>
