<svg width="40" height="40" viewBox="0 0 40 40" fill="none" xmlns="http://www.w3.org/2000/svg">
<path d="M39.9991 11.0801C39.9991 10.6774 39.992 10.2766 39.9812 9.87299C39.9705 8.99288 39.8935 8.11482 39.7509 7.24627C39.602 6.37674 39.3245 5.5342 38.9276 4.74632C38.1217 3.164 36.8351 1.87775 35.2525 1.0723C34.4648 0.674885 33.6221 0.397422 32.7524 0.249101C31.8835 0.105685 31.0051 0.0283817 30.1246 0.0178566C29.7219 0.0071426 29.321 0.00267851 28.9174 0H11.0817C10.679 0 10.2781 0.0071426 9.87455 0.0178566C9.65579 0.0241065 9.43614 0.0312492 9.21648 0.0419633C8.55613 0.0684796 7.89818 0.13767 7.24675 0.249101C6.5978 0.362339 5.96288 0.544929 5.35292 0.793732C5.14696 0.88004 4.94427 0.972895 4.74485 1.0723C4.15637 1.37348 3.60526 1.74266 3.10282 2.17227C2.93495 2.31602 2.77334 2.46512 2.61797 2.61869C1.99258 3.24243 1.46974 3.9611 1.0688 4.74811C0.671705 5.5359 0.39424 6.37847 0.245547 7.24805C0.104194 8.1161 0.0283809 8.99356 0.0187508 9.87299C0.00714318 10.2757 0.00267869 10.6765 0 11.0801V28.9217C0 29.3243 0.00714318 29.7252 0.0187508 30.1279C0.0293945 31.008 0.106402 31.8861 0.249118 32.7546C0.397618 33.6243 0.675091 34.4669 1.07237 35.2546C1.87872 36.8357 3.16406 38.1215 4.74485 38.9286C5.53276 39.3253 6.37538 39.6025 7.24497 39.7509C8.11379 39.8943 8.99224 39.9716 9.87276 39.9821C10.2746 39.9929 10.6764 39.9973 11.08 40H28.9191C29.3218 40 29.7228 39.9929 30.1263 39.9821C31.0071 39.9711 31.8858 39.8938 32.755 39.7509C33.6246 39.6023 34.4672 39.3252 35.2551 38.9286C36.8364 38.1217 38.1219 36.8354 38.9276 35.2537C39.3249 34.466 39.6024 33.6234 39.7509 32.7537C39.8943 31.8853 39.9716 31.0072 39.9821 30.127C39.9929 29.7252 39.9973 29.3235 40 28.9208V12.5131C39.9991 12.0354 39.9991 11.5578 39.9991 11.0801ZM33.7595 32.5975C31.9737 29.1217 28.6495 29.9842 26.9458 30.8591C26.7923 30.9484 26.6351 31.0377 26.4771 31.127L26.4396 31.1493C22.9126 33.0243 18.1776 33.1618 13.4167 31.1154C9.5411 29.4351 6.26401 26.6225 4.01536 23.0468C5.10937 23.8562 6.28092 24.5551 7.51284 25.1334C12.5452 27.4905 17.6026 27.3199 21.1742 25.1334C16.0846 21.2183 11.8345 16.1157 8.57628 11.989C7.95558 11.2649 7.39478 10.4915 6.89942 9.67657C10.8014 13.2479 16.9624 17.7317 19.175 18.9728C14.481 14.0184 10.3451 7.90697 10.5389 8.10339C17.9312 15.5514 24.752 19.763 24.752 19.763C25.0091 19.904 25.1984 20.0174 25.3529 20.1201C25.4958 19.7556 25.6198 19.384 25.7244 19.0067C26.9048 14.6916 25.5761 9.75871 22.5715 5.68559C29.4281 9.79978 33.481 17.6201 31.8202 24.2343C31.7809 24.3887 31.7353 24.5378 31.6916 24.6887C35.131 28.9208 34.1953 33.4537 33.7569 32.5984L33.7595 32.5975Z" fill="black"/>
</svg>
