<svg width="38" height="31" viewBox="0 0 38 31" fill="none" xmlns="http://www.w3.org/2000/svg">
<path d="M23.7558 8.6969C23.1086 9.05934 22.5742 9.25351 22.028 9.68067C21.5946 9.92661 21.1552 10.1855 20.6505 10.4703L20.6149 10.4832C20.3655 10.6386 20.3418 10.6515 20.1102 10.069C19.8311 9.38295 19.6293 8.94284 19.2433 8.52862C18.0737 7.28597 16.9455 7.64841 15.8946 9.13701C14.6359 10.9104 13.9887 13.5381 14.0065 16.8001C14.0243 20.0361 15.0396 22.6897 16.4527 23.1298C17.759 23.4923 18.8158 22.5344 19.6471 20.4762C19.7718 20.1397 19.8846 19.7902 20.0093 19.4019C20.0568 19.2724 20.0983 19.13 20.1458 18.9747H16.5774C16.1915 18.9747 16.0965 18.4569 16.2271 17.7709C16.4646 16.5153 16.9099 14.4183 17.1712 13.3698C17.2246 13.1368 17.3552 12.619 17.5808 12.619H23.5836C23.8508 10.8845 24.2842 9.13701 24.8661 7.48013C26.2139 3.60977 27.7933 1.59045 30.0436 0.749072C31.9317 0.0241894 33.707 0.425465 35.322 2.80722C36.7826 4.98187 37.6851 7.93318 37.9285 11.8035C38.2432 17.2531 37.5189 21.6801 35.7495 25.4728C34.5798 28.1781 33.0836 29.8738 31.3617 30.6376C31.0292 30.767 30.7026 30.8317 30.382 30.8964C30.2098 30.9223 30.0436 30.9612 29.8773 31C28.197 30.9223 26.6592 29.8738 25.3649 27.4533C24.4564 25.7317 23.8271 23.6217 23.5183 21.1752C23.2986 22.1202 23.0433 23.0392 22.6871 23.9065C21.4046 27.738 19.6649 30.1198 17.468 30.7541C15.6512 31.2848 13.9709 30.5211 12.4865 28.1005C11.1209 25.8352 10.3431 22.858 10.1412 19.143C9.89776 14.7419 10.4915 10.6774 11.7087 7.3248C13.0268 3.57094 14.7665 1.18918 16.8921 0.347799C18.6318 -0.45475 20.2943 0.101857 21.7964 2.32828C22.7761 3.73922 23.4767 5.66792 23.9399 8.01085C24.0527 8.37329 23.9755 8.5804 23.7558 8.6969ZM2.8678 9.42178C2.79358 9.42178 2.77517 9.34412 2.81199 9.21467L3.20089 8.12735C3.2377 8.01085 3.33033 7.93318 3.40454 7.93318H10.0106C10.0818 7.93318 10.0996 8.04968 10.064 8.16618L9.74932 9.21467C9.7137 9.34412 9.6187 9.46062 9.56526 9.46062L2.8678 9.42178ZM0.0739817 13.1368C8.77674e-07 13.1368 -0.0185003 13.0462 0.018502 12.9297L0.407014 11.8424C0.444064 11.7259 0.53657 11.6353 0.610372 11.6353H9.0487C9.11995 11.6353 9.15557 11.7647 9.13776 11.8812L8.98933 12.852C8.97151 13.0074 8.90026 13.098 8.82308 13.098L0.0739817 13.1368ZM4.49585 16.6059C4.45904 16.7224 4.47745 16.8389 4.55107 16.8389L8.58558 16.8777C8.63902 16.8777 8.7162 16.7612 8.7162 16.6059L8.75183 15.6351C8.75183 15.4668 8.7162 15.3503 8.63902 15.3503H4.93997C4.86576 15.3503 4.79213 15.4668 4.75472 15.5962L4.49585 16.6059ZM34.2711 14.2759C34.2592 13.9394 34.2532 13.6546 34.2295 13.3698C33.897 9.38295 32.2108 7.11769 30.4533 8.01085C28.7314 8.85223 27.6211 11.234 27.2173 15.0267C26.8849 18.1722 27.5855 21.3565 28.9155 22.6509C29.9367 23.6217 30.952 23.5052 31.9317 22.405C33.3923 20.6445 34.1879 18.1722 34.2829 14.7031C34.277 14.5477 34.277 14.4054 34.2711 14.2759Z" fill="black"/>
</svg>
