<svg width="40" height="40" viewBox="0 0 40 40" fill="none" xmlns="http://www.w3.org/2000/svg">
<path d="M32.6719 12.9625C32.25 12.8018 31.8281 12.65 31.4062 12.5071C31.4766 12.1768 31.5391 11.8465 31.6016 11.5161C32.5625 6.19498 31.9297 1.91842 29.7969 0.507785C27.7422 -0.840357 24.3906 0.561353 21 3.93617C20.6641 4.26651 20.3359 4.61471 20.0234 4.9629C19.8125 4.73077 19.5938 4.49864 19.375 4.27544C15.8203 0.668491 12.2578 -0.849285 10.125 0.570282C8.07812 1.92735 7.46875 5.95392 8.32812 10.9894C8.41406 11.4893 8.50781 11.9804 8.61719 12.4804C8.11719 12.6411 7.625 12.8196 7.16406 13.0071C2.99219 14.6588 0 17.2658 0 19.9621C0 22.7477 3.1875 25.5422 7.52344 27.2385C7.875 27.3724 8.22656 27.5063 8.58594 27.6224C8.46875 28.1581 8.36719 28.6849 8.27344 29.2295C7.45312 34.1846 8.09375 38.1129 10.1406 39.4611C12.25 40.8538 15.7969 39.4254 19.25 35.9702C19.5234 35.6934 19.7969 35.4077 20.0703 35.1042C20.4141 35.4881 20.7734 35.8541 21.1328 36.2112C24.4766 39.4968 27.7812 40.8271 29.8203 39.4789C31.9297 38.0861 32.6172 33.8631 31.7266 28.7206C31.6562 28.3277 31.5781 27.926 31.4922 27.5153C31.7422 27.4349 31.9844 27.3456 32.2266 27.2564C36.7344 25.5511 40 22.7923 40 19.9621C40 17.2569 36.9219 14.632 32.6719 12.9625ZM22.1016 5.38252C25.0078 2.48982 27.7188 1.35595 28.9531 2.16841C30.2734 3.03444 30.7812 6.53425 29.9531 11.1322C29.8984 11.4358 29.8438 11.7304 29.7734 12.025C28.0391 11.5786 26.2812 11.2572 24.5156 11.0786C23.5 9.41802 22.3906 7.82882 21.1875 6.33783C21.4922 6.00749 21.7891 5.69501 22.1016 5.38252ZM13.0625 24.5958C13.4609 25.3725 13.8672 26.1493 14.2969 26.9082C13.0781 26.7564 11.8672 26.5332 10.6719 26.2386C11.0156 24.9529 11.4453 23.6226 11.9453 22.2656C12.3047 23.0512 12.6719 23.828 13.0625 24.5958ZM10.6953 13.8553C11.8203 13.5696 13.0156 13.3375 14.2578 13.1589C13.8438 13.8999 13.4375 14.6588 13.0547 15.4266C12.6719 16.1855 12.2969 16.9623 11.9453 17.7479C11.4531 16.4177 11.0391 15.1141 10.6953 13.8553ZM12.8359 20.0067C13.3516 18.7747 13.9141 17.5694 14.5078 16.3819C15.1016 15.1945 15.7422 14.0428 16.4141 12.9089C17.5859 12.8107 18.7812 12.7571 20 12.7571C21.2188 12.7571 22.4219 12.8107 23.5859 12.9089C24.25 14.0338 24.8828 15.1856 25.4844 16.3641C26.0859 17.5426 26.6484 18.7479 27.1797 19.971C26.6562 21.2031 26.0938 22.4173 25.4922 23.6137C24.8984 24.8011 24.2656 25.9529 23.6016 27.0956C22.4375 27.1939 21.2266 27.2385 20 27.2385C18.7734 27.2385 17.5859 27.1939 16.4375 27.1135C15.7578 25.9796 15.1172 24.819 14.5156 23.6316C13.9141 22.4441 13.3594 21.2388 12.8359 20.0067ZM26.9453 24.5779C27.3438 23.7923 27.7188 22.9977 28.0859 22.1941C28.5859 23.4887 29.0234 24.8011 29.4062 26.1493C28.1953 26.4618 26.9688 26.7028 25.7344 26.8635C26.1562 26.1136 26.5547 25.3457 26.9453 24.5779ZM28.0703 17.7479C27.7031 16.9623 27.3281 16.1766 26.9375 15.4088C26.5547 14.6499 26.1562 13.8999 25.7422 13.1589C27 13.3375 28.2031 13.5785 29.3281 13.8731C28.9688 15.1945 28.5469 16.4801 28.0703 17.7479ZM20.0156 7.70383C20.8359 8.72163 21.6094 9.793 22.3281 10.9001C20.7812 10.8197 19.2266 10.8197 17.6797 10.9001C18.4453 9.74836 19.2344 8.67699 20.0156 7.70383ZM10.9531 2.23091C12.2656 1.35595 15.1797 2.60589 18.25 5.71286C18.4453 5.90928 18.6406 6.12356 18.8438 6.33783C17.6328 7.82882 16.5156 9.41802 15.4922 11.0786C13.7266 11.2572 11.9766 11.5697 10.2422 12.0072C10.1406 11.5518 10.0547 11.0876 9.96875 10.6233C9.23438 6.30212 9.71875 3.04336 10.9531 2.23091ZM9.03906 25.7654C8.71094 25.6582 8.39062 25.5422 8.07031 25.4172C6.40625 24.819 4.51562 23.8726 3.14844 22.6316C2.35938 22.0066 1.82812 21.0424 1.67969 19.9621C1.67969 18.3283 4.14844 16.2391 7.71094 14.8195C8.15625 14.641 8.60938 14.4803 9.0625 14.3285C9.59375 16.2659 10.2344 18.1676 10.9766 20.0067C10.2266 21.8727 9.57812 23.8012 9.03906 25.7654ZM18.1484 34.5149C16.8594 35.863 15.3672 36.9344 13.7422 37.6665C12.875 38.1397 11.875 38.1843 10.9844 37.7826C9.74219 36.9612 9.22656 33.8096 9.92969 29.5687C10.0156 29.0688 10.1094 28.5688 10.2188 28.0777C11.9688 28.5063 13.7344 28.8009 15.5234 28.9527C16.5547 30.6222 17.6875 32.2204 18.8984 33.7203C18.6484 33.9971 18.3984 34.2649 18.1484 34.5149ZM20.0625 32.3454C19.2656 31.3633 18.4688 30.2741 17.6953 29.1045C18.4453 29.1402 19.2188 29.158 20 29.158C20.8047 29.158 21.5938 29.1402 22.375 29.0955C21.6562 30.2294 20.8828 31.3097 20.0625 32.3454ZM30.2734 35.0238C30.2031 36.113 29.7344 37.1308 28.9844 37.8183C27.7422 38.6397 25.0938 37.5683 22.2344 34.7649C21.9062 34.4435 21.5781 34.0953 21.2422 33.7382C22.4375 32.2293 23.5391 30.6312 24.5391 28.9527C26.3281 28.7831 28.1094 28.4706 29.8672 28.0152C29.9453 28.3813 30.0156 28.7473 30.0781 29.1045C30.4609 31.0329 30.5234 33.0418 30.2734 35.0238ZM31.6953 25.4261C31.4766 25.5064 31.2578 25.5868 31.0312 25.6582C30.4844 23.7119 29.8125 21.8102 29.0391 19.9621C29.7891 18.1408 30.4219 16.2659 30.9531 14.3463C31.3594 14.4803 31.75 14.6231 32.125 14.766C35.7656 16.1944 38.3203 18.3193 38.3203 19.9442C38.3203 21.6942 35.5938 23.953 31.6953 25.4261ZM20 24.0869C21.9766 24.0869 23.5781 22.2566 23.5781 19.9978C23.5781 17.739 21.9766 15.9087 20 15.9087C18.0234 15.9087 16.4219 17.739 16.4219 19.9978C16.4219 22.2566 18.0234 24.0869 20 24.0869Z" fill="black"/>
</svg>
