<svg width="35" height="35" viewBox="0 0 35 35" fill="none" xmlns="http://www.w3.org/2000/svg">
<path d="M0 0V35H35V0H0ZM19.0469 27.2969C19.0469 30.7031 17.0469 32.2578 14.1328 32.2578C11.5 32.2578 9.97656 30.8984 9.19531 29.25L11.875 27.6328C12.3906 28.5469 12.8594 29.3203 13.9922 29.3203C15.0703 29.3203 15.7578 28.8984 15.7578 27.25V16.0703H19.0469V27.2969ZM26.8281 32.2578C23.7734 32.2578 21.7969 30.8047 20.8359 28.8984L23.5156 27.3516C24.2188 28.5 25.1406 29.3516 26.7578 29.3516C28.1172 29.3516 28.9922 28.6719 28.9922 27.7266C28.9922 26.6016 28.1016 26.2031 26.5938 25.5391L25.7734 25.1875C23.3984 24.1797 21.8281 22.9062 21.8281 20.2266C21.8281 17.7578 23.7109 15.8828 26.6406 15.8828C28.7344 15.8828 30.2344 16.6094 31.3125 18.5156L28.75 20.1562C28.1875 19.1484 27.5781 18.75 26.6328 18.75C25.6719 18.75 25.0625 19.3594 25.0625 20.1562C25.0625 21.1406 25.6719 21.5391 27.0859 22.1563L27.9063 22.5078C30.7031 23.7031 32.2734 24.9297 32.2734 27.6797C32.2734 30.6328 29.9453 32.2578 26.8281 32.2578Z" fill="#343E3D"/>
</svg>
