<svg width="48" height="40" viewBox="0 0 48 40" fill="none" xmlns="http://www.w3.org/2000/svg">
<path d="M24 1.99644C36.855 1.99644 46.74 10.5764 46.74 20C46.74 29.4237 36.8475 38.0036 24 38.0036C11.145 38.0036 1.26 29.4237 1.26 20C1.26 10.5764 11.1525 1.99644 24 1.99644ZM24 0C10.7475 0 0 8.94831 0 20C0 31.0517 10.7475 40 24 40C37.2525 40 48 31.0517 48 20C48 8.94831 37.2525 0 24 0ZM16.365 18.3957C15.7725 23.2086 13.68 22.7094 11.1075 22.7094L12.135 14.3197C14.985 14.3197 16.92 13.8324 16.365 18.3957ZM7.305 31.2062H10.0575L10.71 25.8824C13.7925 25.8824 15.705 26.2389 17.475 23.6126C19.4325 20.7605 19.9425 15.6863 18.5475 13.1432C17.82 11.8122 16.65 11.1586 15.06 11.1586H9.7575L7.305 31.2062ZM21.2325 5.82294H23.97L23.3175 11.1468C25.68 11.1468 27.87 10.8734 28.9275 12.4183C30.0375 14.0345 29.505 16.1022 28.305 25.8586H25.53C26.685 16.4231 26.9025 15.6387 26.4825 14.9257C26.0775 14.2365 25.155 14.3791 22.9275 14.3791L21.5175 25.8586H18.78L21.2325 5.82294ZM37.875 18.3957C37.275 23.2799 35.1225 22.7094 32.6175 22.7094L33.645 14.3197C36.51 14.3197 38.43 13.8324 37.875 18.3957ZM28.815 31.2062H31.575L32.2275 25.8824C35.4675 25.8824 37.26 26.1794 38.9925 23.6126C40.95 20.7605 41.46 15.6863 40.065 13.1432C39.3375 11.8122 38.1675 11.1586 36.5775 11.1586H31.275L28.815 31.2062Z" fill="black"/>
</svg>
