<svg width="40" height="32" viewBox="0 0 40 32" fill="none" xmlns="http://www.w3.org/2000/svg">
<path d="M11.2756 11.5898C11.2306 13.4752 11.9381 14.3101 11.9556 14.8404C11.9472 14.9483 11.9196 15.052 11.875 15.1428C11.8305 15.2336 11.7702 15.3089 11.6993 15.3623L10.8993 16.1082C10.7958 16.2048 10.6738 16.2603 10.5475 16.268C10.5206 16.2663 10.0356 16.4203 9.26747 14.1362C8.79885 14.9153 8.20259 15.5412 7.52434 15.9662C6.8461 16.3911 6.10385 16.6037 5.35441 16.5876C4.33693 16.6617 1.57948 15.8185 1.72135 11.9086C1.62197 8.72206 3.85006 6.74256 6.1544 6.90987C6.59814 6.91154 7.50438 6.94067 9.09123 7.4318V6.13156C9.25935 3.92896 8.17249 2.21999 6.29065 2.47638C6.14065 2.47721 5.07817 2.43476 3.42569 3.31796C2.9657 3.59932 2.90695 3.55271 2.75383 3.55271C2.29071 3.55271 2.48134 1.76466 2.57008 1.53824C2.8957 1.00549 4.8113 0.0107395 6.69127 0.0248907C7.94828 -0.123175 9.19855 0.393529 10.1718 1.46332C10.5675 2.05275 10.8693 2.74286 11.0591 3.49198C11.2489 4.24111 11.3228 5.0337 11.2762 5.82189L11.2756 11.5898ZM5.8744 14.286C7.90125 14.2469 8.75936 12.6236 8.95498 11.7496C9.10873 10.913 9.0831 10.3836 9.0831 9.46875C8.47874 9.27562 7.60875 9.06502 6.61064 9.06336C5.66378 8.96846 3.93444 9.53201 4.00194 11.7488C3.92444 13.1464 4.69692 14.3626 5.8744 14.286ZM16.5567 16.2047C16.0655 16.2647 15.8367 15.8002 15.7642 15.3415L12.6518 1.63563C12.5912 1.40422 12.5512 1.16531 12.5318 0.921412C12.5203 0.820857 12.5393 0.718345 12.5845 0.6364C12.6297 0.554455 12.6976 0.49978 12.773 0.484389C12.788 0.481059 12.6399 0.484389 14.1636 0.484389C14.7124 0.411135 14.8911 0.986341 14.948 1.34761L17.1805 13.0706L19.2529 1.34761C19.2861 1.07957 19.4367 0.426119 20.0529 0.495211H21.1254C21.261 0.480227 21.8198 0.453589 21.9179 1.35843L24.0066 13.2313L26.3109 1.35843C26.3409 1.17697 26.4809 0.411968 27.1034 0.495211H28.3359C28.389 0.484389 28.7203 0.427784 28.664 1.20943C28.6372 1.36343 28.8771 0.322067 25.3672 15.3523C25.2953 15.811 25.066 16.2755 24.5747 16.2155H23.4066C22.7229 16.3113 22.6248 15.4114 22.6141 15.3207L20.5417 3.90565L18.4929 15.309C18.4829 15.3998 18.3848 16.2996 17.7005 16.2039H16.5567V16.2047ZM33.6489 16.6734C33.2815 16.6742 31.529 16.6484 30.064 15.6503C29.9181 15.568 29.7938 15.4299 29.7069 15.2534C29.62 15.0769 29.5744 14.87 29.5759 14.6589V13.7641C29.5759 13.0607 29.9634 13.1897 30.1278 13.2738C30.7552 13.6117 31.1577 13.8681 31.9283 14.0729C34.2189 14.6997 35.2264 13.8814 35.4733 13.7C36.2952 13.0498 36.3602 11.5623 35.8014 10.7906C35.1464 10.0589 34.8339 10.0315 32.4808 9.04255C32.1908 8.93516 29.7496 7.90962 29.744 4.68397C29.7059 2.3332 31.3096 0.0074095 34.0889 0.0265553C34.8808 0.0257228 36.9908 0.370347 37.562 1.3268C37.6464 1.50078 37.6883 1.70556 37.682 1.91283V2.75441C37.682 3.12401 37.5808 3.30881 37.3776 3.30881C36.8958 3.23722 36.0408 2.37899 34.3052 2.41395C33.8746 2.38398 31.8121 2.4897 31.9046 4.49251C31.8777 6.07079 33.5677 6.66264 33.7608 6.7309C36.0395 7.64407 36.8014 7.79557 37.7058 9.19321C38.777 11.0454 38.1995 13.2138 37.9776 13.8082C36.7851 16.9289 33.7014 16.675 33.6489 16.6734ZM36.1614 25.4022C31.7846 29.7075 25.431 31.9992 20.006 31.9992C12.6862 32.0634 5.61304 28.4786 0.176998 21.9493C-0.23112 21.459 0.128874 20.7872 0.625116 21.161C6.6553 25.7553 13.4827 28.1692 20.4298 28.1633C25.6177 28.1263 30.7489 26.7246 35.5289 24.0387C36.2652 23.6225 36.8895 24.688 36.1614 25.4022ZM37.9858 22.631C37.4258 21.6721 34.2808 22.1832 32.8727 22.4071C32.4483 22.4712 32.3765 21.9809 32.7608 21.6188C35.2652 19.2739 39.3782 19.9456 39.8507 20.7339C40.3226 21.5223 39.7226 27.0113 37.3783 29.6334C37.0183 30.0388 36.6739 29.8249 36.8339 29.2921C37.3614 27.5232 38.5457 23.5908 37.9858 22.631Z" fill="black"/>
</svg>
