<svg width="40" height="40" viewBox="0 0 40 40" fill="none" xmlns="http://www.w3.org/2000/svg">
<path d="M0.952392 0C0.699811 2.52541e-05 0.457582 0.100373 0.27898 0.278973C0.100378 0.457573 2.93406e-05 0.6998 4.08628e-06 0.952379V19.0476V39.0475C-1.36209e-06 39.0494 -1.36209e-06 39.0512 4.08628e-06 39.0531C0.000733405 39.0711 0.00197402 39.0891 0.00372435 39.107C0.0045846 39.1226 0.00582503 39.1381 0.00744461 39.1535C0.00804255 39.1573 0.00866262 39.161 0.00930475 39.1647C0.0123463 39.1934 0.016691 39.222 0.0223257 39.2503C0.0280386 39.2766 0.0348652 39.3027 0.0427871 39.3284C0.0479643 39.344 0.0535466 39.3595 0.0595283 39.3749C0.0663799 39.3937 0.0738242 39.4123 0.0818499 39.4307C0.0942251 39.458 0.107881 39.4847 0.122773 39.5107C0.131048 39.5258 0.139732 39.5407 0.148815 39.5553C0.155404 39.5666 0.162226 39.5778 0.169276 39.5888C0.181157 39.6053 0.193565 39.6215 0.206479 39.6372C0.213744 39.6466 0.221186 39.6559 0.2288 39.6651C0.241384 39.6797 0.254411 39.694 0.267863 39.7079C0.275761 39.7167 0.283823 39.7254 0.292045 39.7339C0.312331 39.7528 0.333433 39.7708 0.355289 39.7878C0.357142 39.7897 0.359002 39.7916 0.36087 39.7934C0.382481 39.8105 0.404824 39.8266 0.427834 39.8418C0.432149 39.8449 0.436489 39.848 0.440855 39.8511C0.443945 39.853 0.447045 39.8548 0.450156 39.8567C0.473155 39.8707 0.496738 39.8837 0.520841 39.8957C0.54931 39.9102 0.578489 39.9232 0.608267 39.9348C0.627265 39.9422 0.646496 39.9491 0.665931 39.9553C0.679488 39.9593 0.693132 39.963 0.706854 39.9664L0.712435 39.9683C0.738231 39.9749 0.764296 39.9805 0.79056 39.985C0.809701 39.9881 0.828932 39.9906 0.848224 39.9925C0.865531 39.9948 0.882899 39.9967 0.900308 39.998C0.906508 39.9981 0.912709 39.9981 0.918909 39.998C0.930058 39.9989 0.941221 39.9995 0.952392 39.9999C0.961692 40 0.970993 40 0.980294 39.9999H39.0479C39.2362 39.9998 39.4203 39.9439 39.5769 39.8393C39.7334 39.7346 39.8554 39.5859 39.9275 39.4119C39.9996 39.2379 40.0184 39.0465 39.9817 38.8618C39.945 38.6771 39.8544 38.5074 39.7213 38.3742L21.3469 20L39.7213 1.62574C39.8544 1.49253 39.945 1.32285 39.9817 1.13814C40.0184 0.953431 39.9996 0.761985 39.9275 0.587997C39.8554 0.414009 39.7334 0.265289 39.5769 0.160631C39.4203 0.0559723 39.2362 7.39316e-05 39.0479 0H19.0478H0.952392ZM1.90478 1.90476H16.7486L1.90478 16.7485V1.90476ZM19.4421 1.90476H36.7488L19.3268 19.3266L1.90478 36.7484V19.4419L19.4421 1.90476ZM20.0001 21.3467L36.7488 38.0951H3.25151L20.0001 21.3467Z" fill="black"/>
</svg>
