<svg width="40" height="40" viewBox="0 0 40 40" fill="none" xmlns="http://www.w3.org/2000/svg">
<path d="M6.66667 0C2.98958 0 0 2.24219 0 5V35C0 37.7578 2.98958 40 6.66667 40H33.3333C37.0104 40 40 37.7578 40 35V12.5H26.6667C24.8229 12.5 23.3333 11.3828 23.3333 10V0H6.66667ZM26.6667 0V10H40L26.6667 0ZM8.33333 5H15C15.9167 5 16.6667 5.5625 16.6667 6.25C16.6667 6.9375 15.9167 7.5 15 7.5H8.33333C7.41667 7.5 6.66667 6.9375 6.66667 6.25C6.66667 5.5625 7.41667 5 8.33333 5ZM8.33333 10H15C15.9167 10 16.6667 10.5625 16.6667 11.25C16.6667 11.9375 15.9167 12.5 15 12.5H8.33333C7.41667 12.5 6.66667 11.9375 6.66667 11.25C6.66667 10.5625 7.41667 10 8.33333 10ZM10 17.5H30C31.8438 17.5 33.3333 18.6172 33.3333 20V25C33.3333 26.3828 31.8438 27.5 30 27.5H10C8.15625 27.5 6.66667 26.3828 6.66667 25V20C6.66667 18.6172 8.15625 17.5 10 17.5ZM10 20V25H30V20H10ZM25 32.5H31.6667C32.5833 32.5 33.3333 33.0625 33.3333 33.75C33.3333 34.4375 32.5833 35 31.6667 35H25C24.0833 35 23.3333 34.4375 23.3333 33.75C23.3333 33.0625 24.0833 32.5 25 32.5Z" fill="black"/>
</svg>
