<svg width="40" height="40" viewBox="0 0 40 40" fill="none" xmlns="http://www.w3.org/2000/svg">
<path d="M19.0192 0.199238L1.52123 7.69997C0.427613 8.16877 -0.181691 9.34076 0.0604685 10.4971C0.302628 11.6535 1.31813 12.4973 2.50549 12.4973V13.1224C2.50549 14.1615 3.34133 14.9976 4.38027 14.9976H35.6266C36.6655 14.9976 37.5014 14.1615 37.5014 13.1224V12.4973C38.6887 12.4973 39.7121 11.6613 39.9464 10.4971C40.1808 9.33294 39.5715 8.16095 38.4856 7.69997L20.9877 0.199238C20.355 -0.0664127 19.6441 -0.0664127 19.0192 0.199238ZM10.0046 17.4978H5.0052V32.8352C4.95833 32.8587 4.91146 32.8899 4.86459 32.9212L1.11503 35.4214C0.201077 36.0309 -0.212937 37.1716 0.107338 38.2264C0.427613 39.2812 1.40406 40 2.50549 40H37.5014C38.6028 40 39.5715 39.2812 39.8917 38.2264C40.212 37.1716 39.8058 36.0309 38.884 35.4214L35.1345 32.9212C35.0876 32.8899 35.0407 32.8665 34.9939 32.8352V17.4978H30.0023V32.4993H26.8776V17.4978H21.8782V32.4993H18.1287V17.4978H13.1292V32.4993H10.0046V17.4978ZM20.0034 9.99707C18.6208 9.99707 17.5037 8.87977 17.5037 7.49683C17.5037 6.11388 18.6208 4.99658 20.0034 4.99658C21.3861 4.99658 22.5031 6.11388 22.5031 7.49683C22.5031 8.87977 21.3861 9.99707 20.0034 9.99707Z" fill="black"/>
</svg>
