<svg width="45" height="46" viewBox="0 0 45 46" fill="none" xmlns="http://www.w3.org/2000/svg">
<path d="M6.24145 1.97337C5.48545 2.06119 4.92284 2.69348 4.92284 3.44871C4.92284 4.26542 5.58214 4.92405 6.3909 4.93283H16.1838C16.9574 4.92405 17.5816 4.30055 17.5816 3.52775V2.28073C17.5816 1.44646 16.8519 0.787825 16.0168 0.884424L6.24145 1.97337ZM16.6585 7.73423H5.84587C5.70522 8.23479 5.6261 8.7617 5.6261 9.30617C5.6261 12.4061 8.14905 14.9265 11.2522 14.9265C14.3553 14.9265 16.8783 12.4061 16.8783 9.30617C16.8783 8.7617 16.7992 8.23479 16.6585 7.73423ZM2.81305 23.3571V26.1672C2.81305 27.7216 4.07013 28.9774 5.6261 28.9774H16.8783C17.0365 28.9774 17.186 28.9686 17.3354 28.9423L4.65911 19.1945C3.5251 20.222 2.81305 21.7061 2.81305 23.3571ZM19.5331 27.0893C19.6298 26.7995 19.6913 26.4922 19.6913 26.1672V23.3571C19.6913 20.2571 17.1684 17.7367 14.0652 17.7367H8.43915C8.11389 17.7367 7.78863 17.763 7.48095 17.8157L19.5331 27.0893ZM33.7566 14.9265C36.8597 14.9265 39.3827 12.4061 39.3827 9.30617C39.3827 6.2062 36.8597 3.68582 33.7566 3.68582C30.6534 3.68582 28.1305 6.2062 28.1305 9.30617C28.1305 12.4061 30.6534 14.9265 33.7566 14.9265ZM30.9435 17.7367C27.8404 17.7367 25.3174 20.2571 25.3174 23.3571V26.1672C25.3174 27.7216 26.5745 28.9774 28.1305 28.9774H39.3827C40.9387 28.9774 42.1957 27.7216 42.1957 26.1672V23.3571C42.1957 20.2571 39.6728 17.7367 36.5696 17.7367H30.9435ZM18.9705 40.4025C19.4276 39.9986 19.6913 39.4278 19.6913 38.813C19.6913 38.1983 19.4276 37.6275 18.9705 37.2235L13.3444 32.3057C12.7203 31.7612 11.8412 31.6295 11.0852 31.972C10.3292 32.3145 9.84567 33.0697 9.84567 33.8952V36.7054H2.10979C0.940613 36.7054 0 37.645 0 38.813C0 39.981 0.940613 40.9207 2.10979 40.9207H9.84567V43.7308C9.84567 44.5563 10.3292 45.3116 11.0852 45.654C11.8412 45.9965 12.7203 45.8648 13.3444 45.3203L18.9705 40.4025ZM25.3174 38.8042C25.3174 39.4102 25.5812 39.9898 26.0295 40.3937L31.6556 45.3467C32.2797 45.8912 33.1588 46.0317 33.9148 45.6892C34.6708 45.3467 35.1543 44.6002 35.1543 43.766V40.9207H42.8902C44.0594 40.9207 45 39.981 45 38.813C45 37.645 44.0594 36.7054 42.8902 36.7054H35.1543V33.8952C35.1543 33.0697 34.6708 32.3145 33.9148 31.972C33.1588 31.6295 32.2797 31.7612 31.6556 32.3057L26.0295 37.2235C25.5724 37.6187 25.3087 38.1983 25.3087 38.8042H25.3174Z" fill="black"/>
</svg>
