<svg width="40" height="40" viewBox="0 0 40 40" fill="none" xmlns="http://www.w3.org/2000/svg">
<path d="M20 0C20.3833 0 20.7667 0.0785546 21.1167 0.227808L36.8083 6.50432C38.6416 7.23488 40.0083 8.93951 40 10.9976C39.9583 18.7903 36.5583 33.0479 22.1917 39.5287C20.8 40.1571 19.1833 40.1571 17.7917 39.5287C3.4417 33.0479 0.0417045 18.7903 3.7904e-05 10.9976C-0.00829541 8.93951 1.35837 7.23488 3.1917 6.50432L18.8917 0.227808C19.2333 0.0785546 19.6167 0 20 0ZM20 5.24745V34.9411C31.5 29.6936 34.5916 18.0754 34.6666 11.1076L20 5.24745Z" fill="black"/>
</svg>
