<svg width="40" height="40" viewBox="0 0 40 40" fill="none" xmlns="http://www.w3.org/2000/svg">
<path d="M39.8891 13.0182C40.1544 13.698 39.9306 14.4559 39.3586 14.9404L35.7696 18.0191C35.8607 18.6677 35.9105 19.3319 35.9105 20.0039C35.9105 20.6759 35.8607 21.3401 35.7696 21.9887L39.3586 25.0674C39.9306 25.5519 40.1544 26.3098 39.8891 26.9896C39.5244 27.9195 39.0851 28.8103 38.5795 29.6699L38.1899 30.3028C37.6428 31.1623 37.0295 31.975 36.3581 32.7408C35.869 33.3034 35.0567 33.4909 34.3273 33.2721L29.7104 31.889C28.5997 32.6939 27.3729 33.3659 26.0633 33.8738L25.0272 38.3356C24.8614 39.0467 24.2812 39.6093 23.5186 39.7265C22.3748 39.9062 21.1977 40 19.9959 40C18.794 40 17.617 39.9062 16.4731 39.7265C15.7105 39.6093 15.1303 39.0467 14.9645 38.3356L13.9284 33.8738C12.6188 33.3659 11.392 32.6939 10.2813 31.889L5.67271 33.2799C4.94329 33.4987 4.13098 33.3034 3.64194 32.7486C2.97054 31.9828 2.35717 31.1702 1.8101 30.3106L1.42052 29.6777C0.914904 28.8181 0.475595 27.9273 0.110885 26.9975C-0.154359 26.3176 0.0694405 25.5597 0.641372 25.0752L4.23045 21.9965C4.13927 21.3401 4.08954 20.6759 4.08954 20.0039C4.08954 19.3319 4.13927 18.6677 4.23045 18.0191L0.641372 14.9404C0.0694405 14.4559 -0.154359 13.698 0.110885 13.0182C0.475595 12.0883 0.914904 11.1975 1.42052 10.338L1.8101 9.70502C2.35717 8.84548 2.97054 8.03282 3.64194 7.26704C4.13098 6.70443 4.94329 6.5169 5.67271 6.73569L10.2896 8.11877C11.4003 7.31393 12.6271 6.64192 13.9367 6.13401L14.9728 1.6722C15.1386 0.961125 15.7188 0.398515 16.4814 0.281305C17.6252 0.0937683 18.8023 0 20.0041 0C21.206 0 22.383 0.0937683 23.5269 0.273491C24.2895 0.390701 24.8697 0.953311 25.0355 1.66439L26.0716 6.1262C27.3812 6.63411 28.608 7.30612 29.7187 8.11096L34.3356 6.72788C35.065 6.50908 35.8773 6.70443 36.3664 7.25923C37.0377 8.02501 37.6511 8.83766 38.1982 9.69721L38.5878 10.3301C39.0934 11.1897 39.5327 12.0805 39.8974 13.0104L39.8891 13.0182ZM20.0041 26.2551C23.6678 26.2551 26.6352 23.4577 26.6352 20.0039C26.6352 16.5501 23.6678 13.7527 20.0041 13.7527C16.3405 13.7527 13.3731 16.5501 13.3731 20.0039C13.3731 23.4577 16.3405 26.2551 20.0041 26.2551Z" fill="black"/>
</svg>
