<svg width="40" height="40" viewBox="0 0 40 40" fill="none" xmlns="http://www.w3.org/2000/svg">
<path d="M20 0C21.2376 0 22.2374 1.11719 22.2374 2.5V3.88281C31.4528 4.95312 38.8572 12.5781 39.9899 22.3359C40.1298 23.5547 38.7803 24.2422 38.0462 23.3281C37.0673 22.1094 35.1585 21.25 33.4245 21.25C30.7186 21.25 28.4602 23.3984 27.9428 26.2578C27.824 26.9375 27.3345 27.5 26.7122 27.5C26.09 27.5 25.6075 26.9375 25.4817 26.2578C24.9643 23.3984 22.7059 21.25 20 21.25C17.2941 21.25 15.0357 23.3984 14.5183 26.2578C14.3995 26.9375 13.91 27.5 13.2877 27.5C12.6655 27.5 12.183 26.9375 12.0572 26.2578C11.5398 23.3984 9.28137 21.25 6.5755 21.25C4.8415 21.25 2.9327 22.1094 1.95383 23.3359C1.21968 24.25 -0.129761 23.5625 0.0100772 22.3438C1.14277 12.5781 8.54722 4.95312 17.7626 3.88281V2.5C17.7626 1.11719 18.7624 0 20 0ZM20 23.75C20.86 23.75 21.6431 24.1094 22.2374 24.7031V33.6406C22.2374 37.1562 19.6854 40 16.546 40C14.3925 40 12.4207 38.6406 11.4559 36.4844L11.295 36.1172C10.7427 34.8828 11.1902 33.3828 12.2949 32.7656C13.3996 32.1484 14.7421 32.6484 15.2944 33.8828L15.4552 34.25C15.665 34.7109 16.0845 35 16.546 35C17.2172 35 17.7626 34.3906 17.7626 33.6406V24.7031C18.3569 24.1094 19.14 23.75 20 23.75Z" fill="black"/>
</svg>
