<svg width="40" height="40" viewBox="0 0 40 40" fill="none" xmlns="http://www.w3.org/2000/svg">
<path d="M30.5926 4.88006C31.7085 3.76436 31.7085 1.95247 30.5926 0.836773C29.4766 -0.278924 27.6643 -0.278924 26.5484 0.836773L14.2908 13.1005L9.16639 7.97724C8.05044 6.86154 6.23814 6.86154 5.1222 7.97724C4.00625 9.09294 4.00625 10.9048 5.1222 12.0205L12.2643 19.161C13.3802 20.2767 15.1925 20.2767 16.3084 19.161L30.5926 4.88006ZM39.163 16.3048C40.279 15.1891 40.279 13.3772 39.163 12.2615C38.0471 11.1458 36.2348 11.1458 35.1188 12.2615L14.2908 33.0938L4.88115 23.6952C3.7652 22.5795 1.95291 22.5795 0.83696 23.6952C-0.278987 24.8109 -0.278987 26.6228 0.83696 27.7385L12.2643 39.1632C13.3802 40.2789 15.1925 40.2789 16.3084 39.1632L39.163 16.3137V16.3048Z" fill="black"/>
</svg>
