<svg width="40" height="40" viewBox="0 0 40 40" fill="none" xmlns="http://www.w3.org/2000/svg">
<path d="M8.57334 9.87201V5.33712C8.57334 4.29363 9.31458 3.35213 10.4309 2.98338L19.0042 0.158878C19.6472 -0.0529593 20.3617 -0.0529593 21.0136 0.158878L29.587 2.98338C30.7033 3.35213 31.4445 4.28578 31.4445 5.33712V9.87201H31.4177C31.4356 10.076 31.4445 10.2878 31.4445 10.4997V13.638C31.4445 19.185 26.3273 23.6807 20.0134 23.6807C13.6995 23.6807 8.58227 19.185 8.58227 13.638V10.4997C8.58227 10.2878 8.5912 10.076 8.60906 9.87201H8.57334ZM12.86 13.638C12.86 17.1059 16.0572 19.9147 20.0045 19.9147C23.9518 19.9147 27.1489 17.1059 27.1489 13.638V12.3827H12.86V13.638ZM11.5294 25.1871L18.9596 32.1228C19.5222 32.6485 20.4778 32.6485 21.0404 32.1228L28.4706 25.1871C35.0525 26.3561 40 31.4637 40 37.5913C40 38.9251 38.7676 40 37.2583 40H2.74168C1.23242 40 0 38.9173 0 37.5913C0 31.4637 4.95646 26.3561 11.5294 25.1871ZM18.5756 3.59535V4.85068H17.1467C16.7537 4.85068 16.4322 5.13313 16.4322 5.47835V6.73368C16.4322 7.0789 16.7537 7.36135 17.1467 7.36135H18.5756V8.61668C18.5756 8.9619 18.8971 9.24435 19.29 9.24435H20.7189C21.1119 9.24435 21.4334 8.9619 21.4334 8.61668V7.36135H22.8622C23.2552 7.36135 23.5767 7.0789 23.5767 6.73368V5.47835C23.5767 5.13313 23.2552 4.85068 22.8622 4.85068H21.4334V3.59535C21.4334 3.25013 21.1119 2.96768 20.7189 2.96768H19.29C18.8971 2.96768 18.5756 3.25013 18.5756 3.59535Z" fill="black"/>
</svg>
