<svg width="40" height="40" viewBox="0 0 40 40" fill="none" xmlns="http://www.w3.org/2000/svg">
<path d="M19 2.5C19 3.88281 18.1063 5 17 5C15.8938 5 15 3.88281 15 2.5C15 1.11719 15.8938 0 17 0C18.1063 0 19 1.11719 19 2.5ZM12 8.75C10.8938 8.75 10 7.63281 10 6.25C10 4.86719 10.8938 3.75 12 3.75C13.1062 3.75 14 4.86719 14 6.25C14 7.63281 13.1062 8.75 12 8.75ZM10 10C11.1062 10 12 11.1172 12 12.5H12.5C13.3313 12.5 14 13.3359 14 14.375V15.625C14 15.7578 13.9875 15.8906 13.9688 16.0234C17.5187 17.9375 20 22.3594 20 27.5C20 34.4062 15.525 40 10 40C4.475 40 0 34.4062 0 27.5C0 22.3594 2.48125 17.9375 6.03125 16.0234C6.00625 15.8984 6 15.7656 6 15.625V14.375C6 13.3359 6.66875 12.5 7.5 12.5H8C8 11.1172 8.89375 10 10 10ZM10 35C13.3125 35 16 31.6406 16 27.5C16 23.3594 13.3125 20 10 20C6.6875 20 4 23.3594 4 27.5C4 31.6406 6.6875 35 10 35ZM22 27.5C22 25.4766 21.6812 23.5547 21.1 21.7891C22.1562 19.2188 23.9 17.1719 26.0312 16.0156C26.0063 15.8906 26 15.7578 26 15.6172V14.375C26 13.3359 26.6688 12.5 27.5 12.5H28C28 11.1172 28.8937 10 30 10C31.1063 10 32 11.1172 32 12.5H32.5C33.3312 12.5 34 13.3359 34 14.375V15.625C34 15.7578 33.9875 15.8906 33.9688 16.0234C37.5187 17.9375 40 22.3594 40 27.5C40 34.4062 35.525 40 30 40C26.125 40 22.7625 37.2422 21.1 33.2109C21.6812 31.4531 22 29.5234 22 27.5ZM36 27.5C36 23.3594 33.3125 20 30 20C26.6875 20 24 23.3594 24 27.5C24 31.6406 26.6875 35 30 35C33.3125 35 36 31.6406 36 27.5ZM23 5C21.8937 5 21 3.88281 21 2.5C21 1.11719 21.8937 0 23 0C24.1063 0 25 1.11719 25 2.5C25 3.88281 24.1063 5 23 5ZM28 8.75C26.8937 8.75 26 7.63281 26 6.25C26 4.86719 26.8937 3.75 28 3.75C29.1063 3.75 30 4.86719 30 6.25C30 7.63281 29.1063 8.75 28 8.75Z" fill="black"/>
</svg>
