<svg width="40" height="40" viewBox="0 0 40 40" fill="none" xmlns="http://www.w3.org/2000/svg">
<path d="M8.57143 0C3.83929 0 0 3.35938 0 7.5V27.5C0 31.25 3.14286 34.3516 7.24107 34.9141L3.13393 38.5078C2.50893 39.0547 2.95536 40 3.83929 40H7.38393C8.14286 40 8.86607 39.7344 9.40179 39.2656L14.2857 35H25.7143L30.5893 39.2656C31.125 39.7344 31.8482 40 32.6071 40H36.1607C37.0536 40 37.5 39.0547 36.8661 38.5078L32.7589 34.9141C36.8661 34.3594 40 31.25 40 27.5V7.5C40 3.35938 36.1607 0 31.4286 0H8.57143ZM5.71429 7.5C5.71429 6.11719 6.99107 5 8.57143 5H31.4286C33.0089 5 34.2857 6.11719 34.2857 7.5V15C34.2857 16.3828 33.0089 17.5 31.4286 17.5H8.57143C6.99107 17.5 5.71429 16.3828 5.71429 15V7.5ZM20 30C17.6339 30 15.7143 28.3203 15.7143 26.25C15.7143 24.1797 17.6339 22.5 20 22.5C22.3661 22.5 24.2857 24.1797 24.2857 26.25C24.2857 28.3203 22.3661 30 20 30Z" fill="black"/>
</svg>
