<svg width="40" height="40" viewBox="0 0 40 40" fill="none" xmlns="http://www.w3.org/2000/svg">
<path d="M20 0C26.3125 0 31.4286 4.47656 31.4286 10C31.4286 15.5234 26.3125 20 20 20C13.6875 20 8.57143 15.5234 8.57143 10C8.57143 4.47656 13.6875 0 20 0ZM18.6696 28.0625L17.0089 25.6406C16.4375 24.8047 17.125 23.75 18.2321 23.75H20H21.7589C22.8661 23.75 23.5536 24.8125 22.9821 25.6406L21.3214 28.0625L24.3036 37.7422L27.8304 25.1484C34.7232 26.0859 40 31.3047 40 37.6016C40 38.9297 38.7679 40 37.2589 40H23.6696H16.3304H2.74107C1.23214 40 0 38.9219 0 37.6016C0 31.3047 5.27679 26.0859 12.1696 25.1484L15.6964 37.7422L18.6786 28.0625H18.6696Z" fill="black"/>
</svg>
