<svg width="40" height="40" viewBox="0 0 40 40" fill="none" xmlns="http://www.w3.org/2000/svg">
<path d="M19.3754 0H20.6255C21.6647 0 22.5007 0.835938 22.5007 1.875V2.71094C28.7824 3.75781 33.7437 8.71875 34.7907 15H35.0016C36.3846 15 37.5018 16.1172 37.5018 17.5C37.5018 18.8828 36.3846 20 35.0016 20H4.9993C3.61638 20 2.4991 18.8828 2.4991 17.5C2.4991 16.1172 3.61638 15 4.9993 15H5.21025C6.25721 8.71875 11.2185 3.75781 17.5003 2.71094V1.875C17.5003 0.835938 18.3363 0 19.3754 0ZM4.9993 22.5H9.99969V32.5H13.1249V22.5H18.1253V32.5H21.8756V22.5H26.876V32.5H30.0012V22.5H35.0016V32.8359C35.0485 32.8594 35.0954 32.8906 35.1345 32.9219L38.8848 35.4219C39.7989 36.0312 40.213 37.1719 39.8926 38.2266C39.5723 39.2812 38.6035 40 37.5018 40H2.4991C1.39746 40 0.428631 39.2812 0.108293 38.2266C-0.212044 37.1719 0.194238 36.0312 1.11618 35.4219L4.86648 32.9219C4.91335 32.8906 4.96023 32.8672 5.00711 32.8359V22.5H4.9993Z" fill="black"/>
</svg>
