<svg width="40" height="40" viewBox="0 0 40 40" fill="none" xmlns="http://www.w3.org/2000/svg">
<path d="M10.53 7.5C12.2732 7.5 13.6875 5.82031 13.6875 3.75C13.6875 1.67969 12.2732 0 10.53 0C8.78681 0 7.37251 1.67969 7.37251 3.75C7.37251 5.82031 8.78681 7.5 10.53 7.5ZM10.0038 37.5V27.5H11.0563V37.5C11.0563 38.8828 11.9969 40 13.1613 40C14.3256 40 15.2663 38.8828 15.2663 37.5V15H18.95H23.16H24.2125C25.3768 15 26.3175 13.8828 26.3175 12.5C26.3175 11.1172 25.3768 10 24.2125 10H23.16V5H35.79V20H23.16V17.5H18.95V21.25C18.95 23.3203 20.3643 25 22.1075 25H36.8425C38.5857 25 40 23.3203 40 21.25V3.75C40 1.67969 38.5857 0 36.8425 0H22.1075C20.3643 0 18.95 1.67969 18.95 3.75V10H13.8914H9.54987C7.33304 10 5.28067 11.3828 4.13607 13.6406L0.301027 21.2188C-0.297583 22.3984 0.0247454 23.9375 1.01804 24.6484C2.01134 25.3594 3.30723 24.9766 3.90584 23.7969L5.79376 20.0703V37.5C5.79376 38.8828 6.73443 40 7.89876 40C9.06309 40 10.0038 38.8828 10.0038 37.5Z" fill="black"/>
</svg>
